<svg width="42" height="28" fill="none" xmlns="http://www.w3.org/2000/svg"><path d="M9.392 15.2l-5.184 3V23L2.12 24.2V6.44l7.272-4.2c.544-.32 1.024-.36 1.44-.12.432.24.648.68.648 1.32V9.2c0 .416-.104.864-.312 1.344-.192.48-.448.928-.768 1.344-.304.4-.64.704-1.008.912.544-.32 1.024-.36 1.44-.12.432.24.648.68.648 1.32v4.8L9.392 20v-4.8zm0-2.4V4.64l-5.184 3v8.16l5.184-3zm0 2.4V20l-2.088-1.2V14l2.088 1.2zm1.464-2.52c-.432-.24-.92-.2-1.464.12l-2.088-1.2c.56-.32 1.048-.36 1.464-.12l2.088 1.2zM9.392 4.64v8.16l-2.088-1.2V3.44l2.088 1.2zm0 8.16l-5.184 3-2.088-1.2 5.184-3 2.088 1.2zm1.464-10.68c-.432-.24-.92-.2-1.464.12L2.12 6.44.032 5.24l7.272-4.2C7.864.72 8.352.68 8.768.92l2.088 1.2zM2.12 6.44V24.2L.032 23V5.24l2.088 1.2zm13.523 4.8l6.24-3.6c.544-.32 1.024-.36 1.44-.12.416.24.624.68.624 1.32v11.52l-2.064 1.2v-2.4c0 .416-.096.864-.288 1.344-.192.48-.448.928-.768 1.344-.32.4-.664.704-1.032.912l-2.064 1.2c-.56.32-1.048.36-1.464.12-.416-.24-.624-.68-.624-1.32V19.4c0-.432.096-.88.288-1.344.192-.48.448-.92.768-1.32.32-.416.664-.728 1.032-.936l4.152-2.4v-3.36l-6.24 3.6v-2.4zm2.088 10.32l4.152-2.4V15.8l-4.152 2.4v3.36zm4.152-11.52v3.36l-2.088-1.2V8.84l2.088 1.2zm0 9.12v2.4l-2.088-1.2v-2.4l2.088 1.2zm0-3.36v3.36l-2.088-1.2V14.6l2.088 1.2zm0 3.36l-4.152 2.4-2.088-1.2 4.152-2.4 2.088 1.2zm0-5.76l-4.152 2.4c-.368.208-.712.52-1.032.936-.32.4-.576.84-.768 1.32a3.507 3.507 0 00-.288 1.344v3.36c0 .64.208 1.08.624 1.32l-2.088-1.2c-.416-.24-.624-.68-.624-1.32V18.2c0-.432.096-.88.288-1.344.192-.48.448-.92.768-1.32.32-.416.664-.728 1.032-.936l4.152-2.4 2.088 1.2zm1.44-5.88c-.416-.24-.896-.2-1.44.12l-6.24 3.6-2.088-1.2 6.24-3.6c.56-.32 1.048-.36 1.464-.12l2.064 1.2zm-7.68 3.72v2.4l-2.088-1.2v-2.4l2.088 1.2zM32.264 9.8c0 .416-.096.864-.288 1.344-.192.48-.448.928-.768 1.344-.32.4-.656.704-1.008.912l-2.088 1.2v-2.4l6.24-3.6v12.96c0 .416-.096.864-.288 1.344-.192.48-.448.92-.768 1.32-.32.416-.664.728-1.032.936l-4.152 2.4v-2.4l4.152-2.4V9.8zm1.032-2.04c-.416.24-.76.28-1.032.12-.272-.16-.408-.48-.408-.96s.136-.96.408-1.44c.272-.48.616-.84 1.032-1.08.432-.24.784-.28 1.056-.12.272.16.408.48.408.96s-.136.96-.408 1.44c-.272.48-.624.84-1.056 1.08zM32.264 9.8v12.96l-2.064-1.2V8.6l2.064 1.2zm0 12.96l-4.152 2.4-2.088-1.2 4.176-2.4 2.064 1.2zm-4.152 2.4v2.4l-2.088-1.2v-2.4l2.088 1.2zm6.24-16.56l-6.24 3.6-2.088-1.2 6.24-3.6 2.088 1.2zm-6.24 3.6v2.4l-2.088-1.2V11l2.088 1.2zm6.24-7.92c-.272-.16-.624-.12-1.056.12-.416.24-.76.6-1.032 1.08-.272.48-.408.96-.408 1.44s.136.8.408.96l-2.088-1.2c-.272-.16-.408-.48-.408-.96s.136-.96.408-1.44c.272-.48.624-.84 1.056-1.08.416-.24.76-.28 1.032-.12l2.088 1.2z" fill="#F4F4F4"/><path d="M40.151 24.2c-.48.272-.88.32-1.2.144-.304-.176-.456-.544-.456-1.104s.152-1.112.456-1.656c.32-.544.72-.952 1.2-1.224s.872-.32 1.176-.144c.32.176.48.544.48 1.104s-.16 1.112-.48 1.656c-.304.544-.696.952-1.176 1.224zm1.2-3.984c-.32-.176-.72-.128-1.2.144s-.88.68-1.2 1.224c-.304.544-.456 1.096-.456 1.656 0 .56.152.928.456 1.104l-2.064-1.2c-.32-.176-.48-.544-.48-1.104s.152-1.112.456-1.656c.32-.544.728-.952 1.224-1.224.48-.272.872-.32 1.176-.144l2.088 1.2z" fill="url(#prefix__paint0_linear_7_6)"/><defs><linearGradient id="prefix__paint0_linear_7_6" x1="-1" y1="12.5" x2="47" y2="12.5" gradientUnits="userSpaceOnUse"><stop offset=".741" stop-color="#FB00FF"/><stop offset="1" stop-color="#8600FF"/></linearGradient></defs></svg>