<svg width="42" height="28" viewBox="0 0 42 28" fill="none" xmlns="http://www.w3.org/2000/svg">
<path d="M9.392 15.2L4.208 18.2V23L2.12 24.2V6.44L9.392 2.24C9.936 1.92 10.416 1.88 10.832 2.12C11.264 2.36 11.48 2.8 11.48 3.44V9.2C11.48 9.616 11.376 10.064 11.168 10.544C10.976 11.024 10.72 11.472 10.4 11.888C10.096 12.288 9.76 12.592 9.392 12.8C9.936 12.48 10.416 12.44 10.832 12.68C11.264 12.92 11.48 13.36 11.48 14V18.8L9.392 20V15.2ZM9.392 12.8V4.64L4.208 7.64V15.8L9.392 12.8ZM9.392 15.2V20L7.304 18.8V14L9.392 15.2ZM10.856 12.68C10.424 12.44 9.936 12.48 9.392 12.8L7.304 11.6C7.864 11.28 8.352 11.24 8.768 11.48L10.856 12.68ZM9.392 4.64V12.8L7.304 11.6V3.44L9.392 4.64ZM9.392 12.8L4.208 15.8L2.12 14.6L7.304 11.6L9.392 12.8ZM10.856 2.12C10.424 1.88 9.936 1.92 9.392 2.24L2.12 6.44L0.032 5.24L7.304 1.04C7.864 0.719999 8.352 0.679999 8.768 0.92L10.856 2.12ZM2.12 6.44V24.2L0.032 23V5.24L2.12 6.44ZM15.6434 11.24L21.8834 7.64C22.4274 7.32 22.9074 7.28 23.3234 7.52C23.7394 7.76 23.9474 8.2 23.9474 8.84V20.36L21.8834 21.56V19.16C21.8834 19.576 21.7874 20.024 21.5954 20.504C21.4034 20.984 21.1474 21.432 20.8274 21.848C20.5074 22.248 20.1634 22.552 19.7954 22.76L17.7314 23.96C17.1714 24.28 16.6834 24.32 16.2674 24.08C15.8514 23.84 15.6434 23.4 15.6434 22.76V19.4C15.6434 18.968 15.7394 18.52 15.9314 18.056C16.1234 17.576 16.3794 17.136 16.6994 16.736C17.0194 16.32 17.3634 16.008 17.7314 15.8L21.8834 13.4V10.04L15.6434 13.64V11.24ZM17.7314 21.56L21.8834 19.16V15.8L17.7314 18.2V21.56ZM21.8834 10.04V13.4L19.7954 12.2V8.84L21.8834 10.04ZM21.8834 19.16V21.56L19.7954 20.36V17.96L21.8834 19.16ZM21.8834 15.8V19.16L19.7954 17.96V14.6L21.8834 15.8ZM21.8834 19.16L17.7314 21.56L15.6434 20.36L19.7954 17.96L21.8834 19.16ZM21.8834 13.4L17.7314 15.8C17.3634 16.008 17.0194 16.32 16.6994 16.736C16.3794 17.136 16.1234 17.576 15.9314 18.056C15.7394 18.52 15.6434 18.968 15.6434 19.4V22.76C15.6434 23.4 15.8514 23.84 16.2674 24.08L14.1794 22.88C13.7634 22.64 13.5554 22.2 13.5554 21.56V18.2C13.5554 17.768 13.6514 17.32 13.8434 16.856C14.0354 16.376 14.2914 15.936 14.6114 15.536C14.9314 15.12 15.2754 14.808 15.6434 14.6L19.7954 12.2L21.8834 13.4ZM23.3234 7.52C22.9074 7.28 22.4274 7.32 21.8834 7.64L15.6434 11.24L13.5554 10.04L19.7954 6.44C20.3554 6.12 20.8434 6.08 21.2594 6.32L23.3234 7.52ZM15.6434 11.24V13.64L13.5554 12.44V10.04L15.6434 11.24ZM32.2642 9.8C32.2642 10.216 32.1682 10.664 31.9762 11.144C31.7842 11.624 31.5282 12.072 31.2082 12.488C30.8882 12.888 30.5522 13.192 30.2002 13.4L28.1122 14.6V12.2L34.3522 8.6V21.56C34.3522 21.976 34.2562 22.424 34.0642 22.904C33.8722 23.384 33.6162 23.824 33.2962 24.224C32.9762 24.64 32.6322 24.952 32.2642 25.16L28.1122 27.56V25.16L32.2642 22.76V9.8ZM33.2962 7.76C32.8802 8 32.5362 8.04 32.2642 7.88C31.9922 7.72 31.8562 7.4 31.8562 6.92C31.8562 6.44 31.9922 5.96 32.2642 5.48C32.5362 5 32.8802 4.64 33.2962 4.4C33.7282 4.16 34.0802 4.12 34.3522 4.28C34.6242 4.44 34.7602 4.76 34.7602 5.24C34.7602 5.72 34.6242 6.2 34.3522 6.68C34.0802 7.16 33.7282 7.52 33.2962 7.76ZM32.2642 9.8V22.76L30.2002 21.56V8.6L32.2642 9.8ZM32.2642 22.76L28.1122 25.16L26.0242 23.96L30.2002 21.56L32.2642 22.76ZM28.1122 25.16V27.56L26.0242 26.36V23.96L28.1122 25.16ZM34.3522 8.6L28.1122 12.2L26.0242 11L32.2642 7.4L34.3522 8.6ZM28.1122 12.2V14.6L26.0242 13.4V11L28.1122 12.2ZM34.3522 4.28C34.0802 4.12 33.7282 4.16 33.2962 4.4C32.8802 4.64 32.5362 5 32.2642 5.48C31.9922 5.96 31.8562 6.44 31.8562 6.92C31.8562 7.4 31.9922 7.72 32.2642 7.88L30.1762 6.68C29.9042 6.52 29.7682 6.2 29.7682 5.72C29.7682 5.24 29.9042 4.76 30.1762 4.28C30.4482 3.8 30.8002 3.44 31.2322 3.2C31.6482 2.96 31.9922 2.92 32.2642 3.08L34.3522 4.28Z" fill="#F4F4F4"/>
<path d="M40.151 24.2C39.671 24.472 39.271 24.52 38.951 24.344C38.647 24.168 38.495 23.8 38.495 23.24C38.495 22.68 38.647 22.128 38.951 21.584C39.271 21.04 39.671 20.632 40.151 20.36C40.631 20.088 41.023 20.04 41.327 20.216C41.647 20.392 41.807 20.76 41.807 21.32C41.807 21.88 41.647 22.432 41.327 22.976C41.023 23.52 40.631 23.928 40.151 24.2ZM41.351 20.216C41.031 20.04 40.631 20.088 40.151 20.36C39.671 20.632 39.271 21.04 38.951 21.584C38.647 22.128 38.495 22.68 38.495 23.24C38.495 23.8 38.647 24.168 38.951 24.344L36.887 23.144C36.567 22.968 36.407 22.6 36.407 22.04C36.407 21.48 36.559 20.928 36.863 20.384C37.183 19.84 37.591 19.432 38.087 19.16C38.567 18.888 38.959 18.84 39.263 19.016L41.351 20.216Z" fill="url(#paint0_linear_7_6)"/>
<defs>
<linearGradient id="paint0_linear_7_6" x1="-1" y1="12.5" x2="47" y2="12.5" gradientUnits="userSpaceOnUse">
<stop offset="0.74058" stop-color="#FB00FF"/>
<stop offset="1" stop-color="#8600FF"/>
</linearGradient>
</defs>
</svg>
