<?xml version="1.0" encoding="UTF-8"?>
<svg version="1.1" xmlns="http://www.w3.org/2000/svg" width="1828" height="1828">
<path d="M0 0 C1.22762603 -0.00657338 1.22762603 -0.00657338 2.48005259 -0.01327956 C5.22650103 -0.02664942 7.9729174 -0.03284246 10.71939087 -0.03897095 C12.68738957 -0.04687363 14.65538683 -0.05514268 16.62338257 -0.06375122 C23.092383 -0.08996203 29.56138985 -0.10528245 36.03042603 -0.11953735 C38.26015858 -0.12489827 40.48989109 -0.13027579 42.71962357 -0.13566971 C51.99982073 -0.15730107 61.28001617 -0.1760348 70.56023216 -0.1872921 C83.84157059 -0.2035104 97.12261549 -0.23663395 110.40384328 -0.29369295 C119.75098682 -0.33247401 129.09805215 -0.35193472 138.445274 -0.35721266 C144.02263364 -0.3608562 149.59968016 -0.37277058 155.17695236 -0.4053154 C160.43179979 -0.43553806 165.68614697 -0.44165737 170.94106293 -0.42993164 C172.86059821 -0.42971206 174.78015766 -0.43792038 176.69961166 -0.45558548 C194.45111352 -0.60994464 207.67395761 2.68323685 220.94448853 15.15390015 C231.42741591 27.18167999 234.26916463 40.18515321 234.17153931 55.74203491 C234.17183136 56.97229904 234.17212341 58.20256317 234.17242432 59.47010803 C234.17127626 62.81667461 234.16130099 66.16298919 234.1472764 69.50951123 C234.13470627 73.01685663 234.13359362 76.52420599 234.13122559 80.03157043 C234.12502917 86.66117172 234.10864346 93.29070642 234.08852661 99.92027849 C234.06611011 107.47293386 234.05515977 115.02559254 234.04513574 122.57827294 C234.02427543 138.10352046 233.98913553 153.62870169 233.94448853 169.15390015 C235.1798071 169.35704551 235.1798071 169.35704551 236.4400816 169.56429482 C238.06088493 169.83229676 238.06088493 169.83229676 239.71443176 170.10571289 C240.78547748 170.28239313 241.85652319 170.45907337 242.96002483 170.64110756 C297.82758923 180.0684899 352.43405591 202.46365816 401.94448853 227.15390015 C403.02552856 227.69240601 404.1065686 228.23091187 405.22036743 228.78573608 C418.18747812 235.28541732 430.90642305 242.13451348 443.38198853 249.52890015 C444.46463989 250.17053101 445.54729126 250.81216187 446.66275024 251.47323608 C450.93056724 254.03379409 455.17459362 256.58998674 459.25357056 259.44393921 C460.31817505 260.18611694 461.38277954 260.92829468 462.47964478 261.69296265 C463.43363159 262.3782605 464.38761841 263.06355835 465.37051392 263.7696228 C467.74511795 265.35846762 467.74511795 265.35846762 469.87544823 264.94946575 C472.40936514 263.97515068 473.71651039 262.74030397 475.62310791 260.80912781 C476.33777222 260.09280685 477.05243652 259.3764859 477.78875732 258.63845825 C478.56282928 257.84731628 479.33690125 257.05617432 480.13442993 256.24105835 C481.3694223 254.99708534 481.3694223 254.99708534 482.62936401 253.72798157 C484.88695668 251.45174609 487.13786772 249.16912568 489.38665056 246.88419366 C491.74833257 244.48881103 494.12016274 242.10352949 496.49145508 239.71766663 C503.54748642 232.61459314 510.58845759 225.49664011 517.62466431 218.37393188 C523.0852258 212.84646919 528.55031509 207.32365437 534.02945077 201.81459492 C537.29792007 198.52709763 540.55107164 195.22489024 543.80206299 191.92008972 C545.52680427 190.18400421 547.25214573 188.44851468 548.97817993 186.7137146 C549.74010651 185.93269379 550.50203308 185.15167297 551.28704834 184.34698486 C562.73729568 172.91494279 575.49137401 167.87019584 591.57388306 167.83700562 C614.19519335 168.25127786 628.54941687 184.61596832 643.44326782 199.47567749 C644.66471899 200.69084734 645.88635314 201.90583329 647.1081543 203.12065125 C651.08185359 207.07352523 655.05041466 211.03153718 659.01870728 214.98983765 C660.39358765 216.36066393 661.76849948 217.73145866 663.14344215 219.10222244 C669.59966802 225.53945274 676.05351775 231.97905362 682.50443524 238.42160356 C689.92217735 245.82956093 697.34814057 253.22914841 704.78113431 260.62180173 C710.54897203 266.35941768 716.30905332 272.10474746 722.06345302 277.85584033 C725.49094304 281.28098916 728.92160301 284.70280802 732.36054039 288.11646652 C735.5943865 291.32691691 738.81843869 294.546897 742.03548813 297.77417564 C743.21105974 298.95023973 744.3900016 300.12294714 745.57270622 301.29183769 C758.44587677 314.02311951 768.08727577 327.47711621 768.25698853 346.15390015 C768.27251695 362.22409813 761.85507191 374.6567133 750.61587524 385.98019409 C749.83687866 386.74480957 749.05788208 387.50942505 748.25527954 388.29721069 C746.99553566 389.55783073 746.99553566 389.55783073 745.71034241 390.84391785 C742.96574492 393.58575578 740.20731115 396.31319619 737.44839478 399.0406189 C735.52826273 400.95103997 733.61116372 402.86449359 731.69398499 404.77787781 C727.18314566 409.27635574 722.66222196 413.76455181 718.13745207 418.24901277 C712.9806688 423.36086368 707.83543362 428.48427284 702.69106781 433.60861528 C692.12154449 444.13648945 681.5378293 454.6499877 670.94448853 465.15390015 C672.37369205 469.66204759 674.0380988 473.10423412 676.69448853 477.02890015 C689.1605977 495.93915634 699.80526151 515.92317995 709.94448853 536.15390015 C710.38821808 537.0378244 710.38821808 537.0378244 710.84091187 537.93960571 C719.73411982 555.67606992 727.81017215 573.62620918 734.94448853 592.15390015 C735.39388794 593.3140564 735.84328735 594.47421265 736.30630493 595.66952515 C746.6466877 622.54938499 755.07117489 649.97304728 762.06948853 677.90390015 C762.26198181 678.66970398 762.4544751 679.43550781 762.65280151 680.22451782 C763.19695642 682.40249269 763.73287537 684.5822844 764.26480103 686.76327515 C764.56660278 688.00045288 764.86840454 689.23763062 765.17935181 690.51229858 C765.99552987 694.39682696 766.47225735 698.21421027 766.94448853 702.15390015 C767.58279728 702.15113477 768.22110603 702.14836939 768.87875748 702.14552021 C784.45509342 702.07908661 800.03137966 702.02953542 815.60782242 701.99846363 C823.14066933 701.98303575 830.67342132 701.96202492 838.20620728 701.92758179 C844.77656362 701.89755378 851.34685117 701.87829554 857.91727424 701.87163466 C861.39195007 701.86774493 864.86642918 701.85869022 868.34104156 701.83670998 C872.23265598 701.81229455 876.12408303 701.81193869 880.01577759 701.81332397 C881.15082733 701.80253815 882.28587708 701.79175232 883.45532227 701.78063965 C898.13852554 701.83688056 911.23621475 706.05141128 922.10073853 716.1812439 C936.00043375 731.05273984 937.24975976 748.04327207 937.21914673 767.43832397 C937.22350093 769.26942654 937.22868642 771.10052729 937.2346344 772.93162537 C937.2479602 777.87805797 937.2486102 782.82441387 937.2460711 787.77086091 C937.24499691 791.9131416 937.24989622 796.05540706 937.25467652 800.19768447 C937.26574974 809.97745364 937.26622158 819.75718439 937.26016235 829.53695679 C937.25412532 839.5963337 937.26643179 849.65557064 937.28773242 859.71492368 C937.30539712 868.37857124 937.31134208 877.04217445 937.30809468 885.70583934 C937.30628927 890.86828623 937.30884336 896.03063329 937.32280922 901.19306374 C937.33546227 906.05149857 937.33337333 910.9097166 937.32039833 915.76814842 C937.31804911 917.54092866 937.32070712 919.31372452 937.32902145 921.08648682 C937.40787453 939.22121013 935.31708316 956.33750064 922.20620728 970.12265015 C912.93364794 978.45033729 901.1055119 984.28660146 888.52180481 984.27415466 C887.44633392 984.27552933 886.37086304 984.27690399 885.26280212 984.27832031 C884.09323471 984.27472504 882.9236673 984.27112976 881.71865845 984.26742554 C879.85950806 984.26764458 879.85950806 984.26764458 877.96279907 984.26786804 C874.57268341 984.26729152 871.18262894 984.26228261 867.7925241 984.25529408 C864.24644511 984.24903495 860.70036528 984.24845472 857.15428162 984.24726868 C850.44311449 984.24416291 843.73196369 984.23595969 837.02080375 984.22591919 C829.37875566 984.21473462 821.73670678 984.20924169 814.09465253 984.20422375 C798.37792175 984.19377645 782.66120724 984.17619162 766.94448853 984.15390015 C766.81030738 984.97244948 766.67612623 985.79099882 766.53787899 986.63435268 C766.36018254 987.71100217 766.1824861 988.78765165 765.99940491 989.89692688 C765.82397376 990.96297622 765.64854261 992.02902555 765.46779537 993.12737942 C764.32555785 999.73345685 762.63705737 1006.2168822 761.00698853 1012.71640015 C760.71595245 1013.88033295 760.71595245 1013.88033295 760.41903687 1015.06777954 C749.64954246 1057.8834582 734.2232337 1099.07710203 715.63198853 1139.09140015 C715.34125458 1139.71860962 715.05052063 1140.34581909 714.75097656 1140.99203491 C711.08766828 1148.87396199 707.21191234 1156.58122943 702.94448853 1164.15390015 C698.68687607 1162.50218211 695.84038067 1159.32192727 692.69296265 1156.1428833 C692.06884499 1155.52047449 691.44472733 1154.89806568 690.80169702 1154.256796 C688.70876788 1152.16716468 686.62307345 1150.07045859 684.53726196 1147.97372437 C683.0395836 1146.47548195 681.54146488 1144.97767961 680.04293823 1143.48028564 C675.9726983 1139.41062047 671.90866224 1135.33481015 667.84569073 1131.25789022 C663.59982415 1126.99953678 659.34830819 1122.74683144 655.09738159 1118.49353027 C647.04699442 1110.43692232 639.00171987 1102.37522884 630.95825791 1094.31170762 C621.80145744 1085.13256675 612.63898981 1075.95909176 603.47603559 1066.78609443 C584.62586229 1047.91500558 565.78283706 1029.03679273 546.94448853 1010.15390015 C547.42060283 1008.56200009 547.89710283 1006.97021539 548.37376404 1005.378479 C548.63907331 1004.49204145 548.90438257 1003.6056039 549.17773151 1002.69230461 C550.13422466 999.52576497 551.13558983 996.37466612 552.14370728 993.22421265 C581.07006878 901.74525354 583.70049116 803.99492839 532.94448853 644.15390015 C532.4768811 643.14617554 532.00927368 642.13845093 531.52749634 641.10018921 C518.12072342 612.24513742 502.57619949 584.74394795 483.49429321 559.23007202 C481.94651613 557.15661639 480.41672003 555.07087388 478.88980103 552.98202515 C469.85415945 540.68700461 459.99465004 529.23888013 449.61245728 518.06796265 C447.57356257 515.84100005 445.58811277 513.59133206 443.61636353 511.3062439 C439.91425786 507.06034595 436.00064665 503.06195128 432.00698853 499.09140015 C431.01022095 498.08883179 431.01022095 498.08883179 429.99331665 497.06600952 C426.03398699 493.11436042 421.96393954 489.35080706 417.72842407 485.69711304 C415.54900695 483.8117845 413.43628243 481.85904797 411.31948853 479.90390015 C405.74128601 474.87673587 399.8701152 470.28578798 393.93081665 465.69882202 C391.83470073 464.06850964 389.75590682 462.41780558 387.67886353 460.76327515 C377.44752262 452.64616382 366.94742629 445.18602424 355.94448853 438.15390015 C355.1473645 437.64004761 354.35024048 437.12619507 353.52896118 436.59677124 C267.07636195 381.0628056 169.81538591 358.715206 -8.02670288 370.98300171 C-93.52522037 389.77750806 -171.44046315 430.19784438 -235.58920288 489.80526733 C-237.01539207 491.11700045 -238.46294802 492.40538271 -239.91098022 493.69296265 C-248.83907681 501.66921088 -256.95265618 510.34888713 -265.05551147 519.15390015 C-265.94754272 520.11940796 -266.83957397 521.08491577 -267.75863647 522.0796814 C-272.61416779 527.40209072 -277.24983078 532.88248245 -281.74203491 538.51473999 C-282.65368703 539.65244117 -283.57145563 540.78525747 -284.49398804 541.91415405 C-302.25508395 563.67290616 -317.4535083 587.61755646 -331.05551147 612.15390015 C-331.52714722 612.99549683 -331.99878296 613.83709351 -332.48471069 614.70419312 C-362.417771 668.45655238 -380.70928981 730.0650743 -387.05551147 791.15390015 C-387.14164703 791.98023956 -387.22778259 792.80657898 -387.31652832 793.65795898 C-388.96425374 809.98035793 -389.42027854 826.1929581 -389.36801147 842.59140015 C-389.36585632 843.81613037 -389.36370117 845.0408606 -389.36148071 846.30270386 C-389.10433213 937.69003914 -362.99913523 1029.84664275 -312.05551147 1106.15390015 C-311.53779175 1106.93523315 -311.02007202 1107.71656616 -310.48666382 1108.52157593 C-300.17437722 1124.03544131 -289.04277609 1138.89212891 -277.05551147 1153.15390015 C-276.62480347 1153.66952515 -276.19409546 1154.18515015 -275.75033569 1154.71640015 C-261.99831977 1171.14712858 -247.36453685 1187.59552954 -231.00473022 1201.4859314 C-228.68365418 1203.47210268 -226.43631063 1205.53145332 -224.18051147 1207.59140015 C-219.29196926 1211.9918277 -214.24827843 1216.11893303 -209.05551147 1220.15390015 C-208.46947144 1220.61248413 -207.8834314 1221.07106812 -207.27963257 1221.54354858 C-139.28819743 1274.66454342 -59.75715785 1309.08800086 72.69448853 1325.77890015 C73.55598511 1325.81910278 74.41748169 1325.85930542 75.30508423 1325.90072632 C89.9246389 1326.48431141 104.52865212 1326.2288714 119.13198853 1325.40390015 C119.90139771 1325.3606662 120.67080688 1325.31743225 121.46353149 1325.27288818 C165.39043624 1322.73332182 209.09211753 1314.37952859 250.53726196 1299.50375366 C251.45668579 1299.18076294 252.37610962 1298.85777222 253.32339478 1298.5249939 C254.12333862 1298.2355188 254.92328247 1297.9460437 255.74746704 1297.64779663 C258.31625601 1297.07032579 259.47310556 1297.28520209 261.94448853 1298.15390015 C263.72898579 1299.56646061 263.72898579 1299.56646061 265.56736755 1301.4092865 C266.26953903 1302.10588882 266.97171051 1302.80249115 267.69515991 1303.52020264 C268.45524353 1304.28950104 269.21532715 1305.05879944 269.9984436 1305.85140991 C270.80708359 1306.65800552 271.61572357 1307.46460114 272.4488678 1308.29563904 C275.12790209 1310.97165865 277.79601936 1313.65828931 280.46401978 1316.3453064 C282.32425083 1318.20859548 284.18507358 1320.07129402 286.04646301 1321.9334259 C289.95281389 1325.84347055 293.853486 1329.75910623 297.75039673 1333.67855835 C302.7332 1338.69012769 307.72512642 1343.69250286 312.72009754 1348.69194126 C316.56686718 1352.54228197 320.41019887 1356.396045 324.25281334 1360.25053215 C326.09147353 1362.09487185 327.93059112 1363.93875568 329.77018166 1365.78216743 C332.35017364 1368.36907929 334.92676375 1370.95933106 337.50234985 1373.55062866 C338.25636078 1374.30575745 339.0103717 1375.06088623 339.78723145 1375.83889771 C343.77872409 1379.86246326 347.58556433 1383.98239928 351.28788471 1388.27270412 C353.85480215 1391.18762852 356.58418721 1393.92528819 359.33877563 1396.66171265 C359.93476562 1397.25784866 360.53075562 1397.85398468 361.14480591 1398.46818542 C363.08478319 1400.40747472 365.02826111 1402.3432133 366.97183228 1404.27890015 C368.32968201 1405.63488173 369.68730885 1406.99108655 371.04472351 1408.34750366 C374.59507452 1411.89406074 378.1484197 1415.43760276 381.7024231 1418.98049927 C385.33767931 1422.60547374 388.97005952 1426.23332764 392.60269165 1429.8609314 C399.71383154 1436.96138916 406.82814183 1444.05866111 413.94448853 1451.15390015 C412.94448853 1454.15390015 412.94448853 1454.15390015 411.16738892 1455.35800171 C410.38355835 1455.74955444 409.59972778 1456.14110718 408.79214478 1456.54452515 C407.88875366 1456.99883911 406.98536255 1457.45315308 406.05459595 1457.92123413 C405.0488855 1458.41051392 404.04317505 1458.8997937 403.00698853 1459.40390015 C401.94649292 1459.92476196 400.88599731 1460.44562378 399.79336548 1460.98226929 C373.78409766 1473.60897488 347.22604421 1484.59488959 319.94448853 1494.15390015 C319.26678406 1494.39304138 318.58907959 1494.63218262 317.89083862 1494.87857056 C298.87748404 1501.58054085 279.62652257 1506.95427785 260.06948853 1511.84140015 C258.99558868 1512.11009918 257.92168884 1512.37879822 256.81524658 1512.65563965 C253.75853527 1513.41640744 250.69984136 1514.16836474 247.63980103 1514.9156189 C246.71846878 1515.1431485 245.79713654 1515.3706781 244.84788513 1515.60510254 C243.99562851 1515.8102951 243.14337189 1516.01548767 242.26528931 1516.22689819 C241.52400787 1516.40689865 240.78272644 1516.58689911 240.01898193 1516.77235413 C237.94448853 1517.15390015 237.94448853 1517.15390015 233.94448853 1517.15390015 C233.95001928 1518.11771119 233.95001928 1518.11771119 233.95566177 1519.10099316 C234.04426949 1534.78615292 234.11032228 1550.47122478 234.15173721 1566.1565733 C234.17230112 1573.74211849 234.20030244 1581.3274959 234.24624634 1588.91293335 C234.28630447 1595.5298116 234.31196611 1602.14656825 234.3208425 1608.76356441 C234.32602545 1612.26237197 234.33807546 1615.76083186 234.36740875 1619.25952721 C234.40000455 1623.17970323 234.40043587 1627.09954922 234.39859009 1631.01986694 C234.41297119 1632.16067215 234.42735229 1633.30147736 234.44216919 1634.47685242 C234.36952041 1648.83137313 229.35563126 1661.83013837 219.69448853 1672.49765015 C205.0486661 1686.35887494 187.80165483 1687.45877132 168.6600647 1687.42855835 C166.82896213 1687.43291255 164.99786139 1687.43809804 163.16676331 1687.44404602 C158.2203307 1687.45737182 153.2739748 1687.45802182 148.32752776 1687.45548272 C144.18524707 1687.45440853 140.04298161 1687.45930784 135.90070421 1687.46408814 C126.12093504 1687.47516136 116.34120428 1687.4756332 106.56143188 1687.46957397 C96.50205497 1687.46353694 86.44281803 1687.47584341 76.38346499 1687.49714404 C67.71981743 1687.51480875 59.05621422 1687.5207537 50.39254934 1687.5175063 C45.23010244 1687.51570089 40.06775538 1687.51825498 34.90532494 1687.53222084 C30.04689011 1687.5448739 25.18867208 1687.54278495 20.33024025 1687.52980995 C18.55746001 1687.52746073 16.78466415 1687.53011874 15.01190186 1687.53843307 C-3.33596469 1687.61821294 -18.97487729 1685.55984785 -32.80160522 1672.40390015 C-33.54539429 1671.66140015 -34.28918335 1670.91890015 -35.05551147 1670.15390015 C-35.64461304 1669.57640015 -36.2337146 1668.99890015 -36.84066772 1668.40390015 C-46.71985957 1657.89304641 -48.36897013 1644.33511389 -48.28256226 1630.56576538 C-48.28285431 1629.33550125 -48.28314636 1628.10523712 -48.28344727 1626.83769226 C-48.28229921 1623.49112568 -48.27232393 1620.1448111 -48.25829935 1616.79828906 C-48.24572922 1613.29094367 -48.24461657 1609.7835943 -48.24224854 1606.27622986 C-48.23605212 1599.64662857 -48.21966641 1593.01709387 -48.19954956 1586.3875218 C-48.17713306 1578.83486643 -48.16618271 1571.28220775 -48.15615869 1563.72952735 C-48.13529838 1548.20427983 -48.10015848 1532.6790986 -48.05551147 1517.15390015 C-49.29053909 1517.007229 -50.52556671 1516.86055786 -51.79801941 1516.70944214 C-54.63284456 1516.35430376 -57.39762814 1515.9456366 -60.17538452 1515.26522827 C-61.23700302 1515.00805275 -61.23700302 1515.00805275 -62.32006836 1514.74568176 C-63.06163177 1514.56070633 -63.80319519 1514.3757309 -64.56723022 1514.18515015 C-65.36486786 1513.98925797 -66.16250549 1513.79336578 -66.98431396 1513.59153748 C-69.5722938 1512.9524557 -72.15790523 1512.30450344 -74.74301147 1511.65390015 C-75.63366302 1511.43047943 -76.52431458 1511.20705872 -77.44195557 1510.97686768 C-144.12430352 1494.18779814 -207.77562543 1467.34152614 -266.49691772 1431.59140015 C-267.41231323 1431.03452515 -268.32770874 1430.47765015 -269.27084351 1429.90390015 C-271.2296999 1428.67287414 -273.16110916 1427.39761762 -275.07064819 1426.09140015 C-276.04405151 1425.43140015 -277.01745483 1424.77140015 -278.02035522 1424.09140015 C-278.89168091 1423.48167358 -279.76300659 1422.87194702 -280.66073608 1422.2437439 C-282.95562001 1420.8592741 -282.95562001 1420.8592741 -284.97695351 1421.8696413 C-287.21729541 1423.25386005 -288.86206456 1424.73409603 -290.70721436 1426.61219788 C-291.77053986 1427.68657356 -291.77053986 1427.68657356 -292.85534668 1428.78265381 C-293.62313446 1429.56862946 -294.39092224 1430.3546051 -295.18197632 1431.16439819 C-295.99887939 1431.99225327 -296.81578247 1432.82010834 -297.65744019 1433.67304993 C-299.4327958 1435.47276766 -301.20601857 1437.27459128 -302.9773674 1439.07825279 C-305.78945215 1441.9390203 -308.60955835 1444.79171666 -311.43310547 1447.64115906 C-319.46093331 1455.74495509 -327.4824511 1463.85482026 -335.47592163 1471.99252319 C-339.89206022 1476.48817233 -344.32097193 1480.9708257 -348.76411974 1485.43978721 C-351.10953334 1487.79992484 -353.44575678 1490.16766721 -355.77070236 1492.54807091 C-369.05755515 1506.14518592 -381.41392983 1518.12315561 -401.49862671 1518.53451538 C-420.62574024 1518.48666119 -433.45374104 1511.24251548 -446.78672791 1497.96479797 C-447.99208534 1496.75166652 -449.19723289 1495.5383265 -450.40219116 1494.32479858 C-451.70196167 1493.03045908 -453.00257919 1491.73696967 -454.30397034 1490.44425964 C-457.81096283 1486.95538677 -461.30532316 1483.45411968 -464.79689312 1479.94982052 C-468.46711165 1476.2694152 -472.14714803 1472.59884697 -475.82559204 1468.92666626 C-481.99912163 1462.7603966 -488.16420936 1456.58578111 -494.32455444 1450.40634155 C-501.42838594 1443.28074467 -508.54651174 1436.16967141 -515.67223239 1429.06596923 C-521.80985211 1422.94655069 -527.93958093 1416.81930996 -534.06288266 1410.68556428 C-537.71133245 1407.03090549 -541.36236636 1403.37893832 -545.02056122 1399.73403168 C-548.46070205 1396.30551749 -551.89077396 1392.86722763 -555.31359291 1389.42142296 C-556.564987 1388.16477806 -557.81972629 1386.91145331 -559.07818413 1385.6618824 C-571.95143266 1372.87112855 -582.01339735 1359.54827646 -582.36801147 1340.71640015 C-582.38481485 1324.47500633 -576.07722982 1311.76305537 -564.72689819 1300.3276062 C-563.94790161 1299.56299072 -563.16890503 1298.79837524 -562.36630249 1298.0105896 C-561.52647324 1297.17017624 -560.68664398 1296.32976288 -559.82136536 1295.46388245 C-557.07676787 1292.72204451 -554.3183341 1289.9946041 -551.55941772 1287.2671814 C-549.63928568 1285.35676032 -547.72218666 1283.4433067 -545.80500793 1281.52992249 C-541.29416861 1277.03144456 -536.77324491 1272.54324848 -532.24847502 1268.05878752 C-527.09169175 1262.94693661 -521.94645657 1257.82352745 -516.80209076 1252.69918501 C-506.23256744 1242.17131084 -495.64885225 1231.65781259 -485.05551147 1221.15390015 C-486.484715 1216.6457527 -488.14912174 1213.20356618 -490.80551147 1209.27890015 C-503.27265597 1190.36707344 -513.9044659 1170.3803024 -524.05551147 1150.15390015 C-524.60062378 1149.07302124 -525.14573608 1147.99214233 -525.70736694 1146.87850952 C-547.79036724 1102.85844646 -564.01125724 1056.47710334 -576.05551147 1008.77890015 C-576.33427124 1007.67522095 -576.61303101 1006.57154175 -576.90023804 1005.43441772 C-578.16344979 1000.28789699 -579.23658824 995.17124692 -580.09994507 989.9418335 C-580.27915497 988.85870062 -580.45836487 987.77556774 -580.64300537 986.65961266 C-580.77913239 985.83272753 -580.9152594 985.0058424 -581.05551147 984.15390015 C-581.69382023 984.15666553 -582.33212898 984.1594309 -582.98978043 984.16228008 C-598.56611637 984.22871368 -614.14240261 984.27826488 -629.71884537 984.30933666 C-637.25169228 984.32476454 -644.78444427 984.34577537 -652.31723022 984.38021851 C-658.88758657 984.41024652 -665.45787412 984.42950475 -672.02829719 984.43616563 C-675.50297302 984.44005536 -678.97745212 984.44911007 -682.45206451 984.47109032 C-686.34367893 984.49550574 -690.23510598 984.4958616 -694.12680054 984.49447632 C-695.26185028 984.50526215 -696.39690002 984.51604797 -697.56634521 984.52716064 C-711.46944496 984.47390776 -724.88121576 980.71219595 -735.30160522 971.0953064 C-748.18471863 956.83493365 -750.65953357 943.05456169 -750.5730896 924.42318726 C-750.57851851 922.44913722 -750.58564546 920.47509125 -750.59432983 918.50105286 C-750.6124734 913.17051416 -750.60553313 907.84028718 -750.59281349 902.50974345 C-750.58264062 896.9148483 -750.5920909 891.31997867 -750.59835815 885.7250824 C-750.6056215 876.33306111 -750.5960807 866.94116593 -750.57699585 857.54916382 C-750.55522337 846.7097431 -750.56228662 835.87062333 -750.58430147 825.03120989 C-750.60248532 815.70260933 -750.60499939 806.37409907 -750.59454679 797.04548651 C-750.5883291 791.48351554 -750.58742882 785.92168579 -750.60069275 780.35972404 C-750.61229433 775.13022541 -750.60414696 769.90111283 -750.58111572 764.67165565 C-750.57585188 762.75894179 -750.57730231 760.84619513 -750.58616638 758.93349457 C-750.65631606 742.25155535 -747.6823647 728.93010513 -735.80551147 716.40390015 C-726.41629465 707.48729491 -714.72126145 702.02063419 -701.67079163 702.03364563 C-700.60373489 702.03227097 -699.53667816 702.0308963 -698.43728638 702.02947998 C-697.2770697 702.03307526 -696.11685303 702.03667053 -694.92147827 702.04037476 C-693.69179825 702.04022873 -692.46211823 702.0400827 -691.19517517 702.03993225 C-687.83191796 702.04050875 -684.46872244 702.04551745 -681.10547614 702.05250621 C-677.58742439 702.05876559 -674.06937177 702.05934559 -670.55131531 702.06053162 C-663.89327207 702.06363731 -657.23524529 702.07184043 -650.57720929 702.08188111 C-642.99561956 702.0930659 -635.41402904 702.09855866 -627.8324331 702.10357654 C-612.24011637 702.11402368 -596.64781605 702.13160837 -581.05551147 702.15390015 C-580.92165889 701.3365206 -580.7878063 700.51914104 -580.64989758 699.67699242 C-580.47245667 698.60125277 -580.29501577 697.52551311 -580.11219788 696.41717529 C-579.849544 694.81985597 -579.849544 694.81985597 -579.58158398 693.19026756 C-578.38827614 686.30277387 -576.59777379 679.54773096 -574.86801147 672.77890015 C-574.65642395 671.9496402 -574.44483643 671.12038025 -574.22683716 670.26599121 C-565.88717613 637.85446091 -555.3179019 605.88944649 -542.05551147 575.15390015 C-541.54310913 573.9613562 -541.03070679 572.76881226 -540.5027771 571.54013062 C-507.35155549 494.710981 -507.35155549 494.710981 -486.31185913 470.11557007 C-484.84101111 468.2724201 -484.84101111 468.2724201 -485.26794147 466.26120949 C-486.2284741 463.69110222 -487.44911851 462.40161301 -489.40028381 460.47528076 C-490.11660477 459.76061646 -490.83292572 459.04595215 -491.57095337 458.30963135 C-492.36209534 457.53555939 -493.1532373 456.76148743 -493.96835327 455.96395874 C-495.21232628 454.72896637 -495.21232628 454.72896637 -496.48143005 453.46902466 C-498.75766554 451.21143199 -501.04028594 448.96052095 -503.32521796 446.71173811 C-505.7206006 444.3500561 -508.10588213 441.97822594 -510.491745 439.60693359 C-517.59481848 432.55090225 -524.71277151 425.50993108 -531.83547974 418.47372437 C-537.36294243 413.01316287 -542.88575726 407.54807358 -548.3948167 402.0689379 C-551.68231399 398.8004686 -554.98452138 395.54731703 -558.2893219 392.29632568 C-560.02540741 390.57158441 -561.76089694 388.84624294 -563.49569702 387.12020874 C-564.27671783 386.35828217 -565.05773865 385.59635559 -565.86242676 384.81134033 C-577.29446883 373.36109299 -582.33921578 360.60701467 -582.37240601 344.52450562 C-581.93166225 320.45771982 -563.12684761 305.06280053 -547.35629272 289.3218689 C-546.06823956 288.03313974 -544.78033466 286.74426238 -543.49256897 285.45524597 C-540.81586713 282.77708313 -538.13739924 280.1007032 -535.45761108 277.42562866 C-532.04179975 274.0155369 -528.63053054 270.60094214 -525.22056293 267.18500805 C-522.57052446 264.53134026 -519.91808953 261.88007808 -517.26494408 259.22951698 C-516.00644984 257.97168426 -514.74868253 256.71312376 -513.4916935 255.45378685 C-502.50525792 244.45131617 -502.50525792 244.45131617 -498.06259155 240.67855835 C-492.55093962 235.97448338 -487.58692143 230.69288289 -482.52582932 225.51599121 C-479.26377261 222.18432559 -475.98427647 218.86986694 -472.70785522 215.55233765 C-468.56442855 211.35513293 -464.42623577 207.15315985 -460.30697632 202.93222046 C-456.95460689 199.49802817 -453.58478917 196.08181068 -450.20320511 192.6763916 C-448.92998449 191.38789612 -447.66301979 190.09318322 -446.40296555 188.79180908 C-434.08099317 176.07765658 -421.83173571 168.31665879 -403.68051147 167.84140015 C-379.0846464 168.23454085 -365.41089924 184.64042607 -349.30479813 200.95170975 C-345.77278412 204.5261162 -342.23115754 208.09093449 -338.69013023 211.65640831 C-332.11452845 218.27764103 -325.54279817 224.90256648 -318.98764038 231.54403687 C-314.40972471 236.18212094 -309.81884285 240.80713323 -305.22019577 245.42466354 C-303.4717067 247.18492453 -301.72777057 248.94971989 -299.98845291 250.71904373 C-297.56850169 253.17973826 -295.13367128 255.62470404 -292.69467163 258.0664978 C-291.9767041 258.80401276 -291.25873657 259.54152771 -290.51901245 260.3013916 C-289.85483307 260.96014282 -289.19065369 261.61889404 -288.50634766 262.29760742 C-287.9330755 262.87678736 -287.35980335 263.45596729 -286.76915932 264.05269814 C-285.09742483 265.3843076 -285.09742483 265.3843076 -282.96588707 264.90120506 C-280.74882616 264.03393031 -278.88513027 262.95490426 -276.87973022 261.66952515 C-276.06423706 261.15333618 -275.2487439 260.63714722 -274.40853882 260.10531616 C-273.52891479 259.54384888 -272.64929077 258.98238159 -271.74301147 258.40390015 C-251.77859309 245.87547414 -231.08655417 234.77832424 -210.05551147 224.15390015 C-209.1186853 223.67743042 -208.18185913 223.20096069 -207.21664429 222.71005249 C-167.07182937 202.41859366 -123.63815631 187.10657528 -80.05551147 176.15390015 C-79.40892578 175.9910553 -78.76234009 175.82821045 -78.09616089 175.66043091 C-70.96506051 173.86726656 -63.82499379 172.11067496 -56.67269897 170.40390015 C-55.65804565 170.1615564 -54.64339233 169.91921265 -53.59799194 169.66952515 C-51.05551147 169.15390015 -51.05551147 169.15390015 -48.05551147 169.15390015 C-48.05827685 168.5146696 -48.06104223 167.87543905 -48.06389141 167.21683788 C-48.13030028 151.62416229 -48.17986428 136.03153626 -48.21094799 120.43875408 C-48.22638146 112.89803153 -48.24740316 105.35740368 -48.28182983 97.81674194 C-48.31184054 91.24016926 -48.33111203 84.66366521 -48.33777696 78.08702594 C-48.34166958 74.60846981 -48.35074315 71.13010994 -48.37270164 67.65161705 C-48.39708238 63.75740403 -48.39747402 59.86337864 -48.39608765 55.96908569 C-48.41226639 54.26111816 -48.41226639 54.26111816 -48.42877197 52.51864624 C-48.37148626 37.58176425 -43.67830835 25.25753228 -33.37191772 14.4078064 C-23.92968984 5.22034351 -13.2083531 0.00859677 0 0 Z " fill="#333333" transform="translate(750.0555114746094,-0.153900146484375)"/>
<path d="M0 0 C0.82665161 -0.00067474 1.65330322 -0.00134949 2.50500488 -0.00204468 C68.89710401 0.08321233 133.99352039 20.37385272 185.9375 62.25 C186.99347447 63.07944633 188.04946306 63.90887468 189.10546875 64.73828125 C196.56528489 70.78912824 203.3788149 77.48503037 210.1875 84.25 C211.11071045 85.16386475 212.0339209 86.07772949 212.98510742 87.01928711 C219.05874777 93.12129621 224.62289592 99.47846593 229.9375 106.25 C230.43991211 106.88776367 230.94232422 107.52552734 231.45996094 108.18261719 C242.95828617 123.01777876 253.04869432 139.1556745 260.97070312 156.17626953 C261.64319796 157.61873698 262.32488695 159.05693897 263.01367188 160.49169922 C280.04666932 195.98203054 289.96239933 236.07723238 290.140625 275.53125 C290.14763931 276.57499283 290.15465363 277.61873566 290.16188049 278.69410706 C290.17929486 282.04611573 290.18573329 285.39794774 290.1875 288.75 C290.18851212 290.46774124 290.18851212 290.46774124 290.18954468 292.22018433 C290.17373407 309.09246976 289.77030833 325.57926843 286.9375 342.25 C286.76589355 343.301875 286.59428711 344.35375 286.41748047 345.4375 C281.79040388 373.2247696 274.96796046 402.63477048 262.5546875 428.078125 C261.71585577 430.21408504 261.71585577 430.21408504 262.62851239 432.10001973 C264.22493374 434.72210292 266.09031101 436.65044993 268.26411432 438.82155931 C269.1803106 439.74148151 270.09650689 440.6614037 271.0404667 441.60920233 C272.06580784 442.62854505 273.09123953 443.6477967 274.11675167 444.66696739 C275.20424419 445.75502877 276.29129668 446.84353011 277.37794724 447.93243235 C280.38248444 450.94062693 283.39326055 453.94251012 286.40503156 456.94345987 C289.67414121 460.20302281 292.93744453 463.46838969 296.20146328 466.73304904 C301.92883762 472.45994829 307.65991029 478.18312564 313.39338303 483.90391922 C321.91955028 492.41128462 330.43997266 500.92438606 338.95913959 509.43876081 C353.29161476 523.7629074 367.62853086 538.08260112 381.96774101 552.40000534 C401.55563902 571.9582766 421.13650676 591.52357502 440.71540392 611.09085615 C449.83318938 620.2032249 458.95129115 629.31527711 468.06945133 638.42727089 C468.98236174 639.33956552 469.89527216 640.25186014 470.83584652 641.19180006 C492.09704665 662.43853554 513.36099689 683.68251782 534.62570384 704.9257434 C536.06750233 706.36608595 537.50929874 707.80643058 538.95109478 709.24677558 C560.66644532 730.94025186 582.38258856 752.63293439 604.09978129 774.32456646 C606.5092933 776.73124375 608.918801 779.13792534 611.32830862 781.54460702 C611.80502852 782.02076777 612.28174843 782.49692852 612.7729144 782.98751838 C617.58022428 787.78919077 622.38752793 792.59086941 627.19482619 797.39255344 C628.63414862 798.83019397 630.07347275 800.2678328 631.51279701 801.7054715 C653.20230582 823.36960782 674.89058851 845.03496904 696.57441044 866.70479774 C697.48610339 867.61590211 698.39779634 868.52700648 699.33711634 869.46572007 C708.4397867 878.56258457 717.54219954 887.65970666 726.64425118 896.75719022 C731.12263671 901.23331071 735.60109564 905.70935775 740.07960701 910.18535233 C740.96102236 911.06627241 741.84243772 911.94719249 742.75056262 912.85480712 C756.93484414 927.03075743 771.12479448 941.20102028 785.31705532 955.36898162 C799.58480112 969.61245657 813.84727944 983.86118781 828.10433804 998.1153603 C836.5733251 1006.58228047 845.0465107 1015.04494819 853.52575881 1023.5015926 C859.19324768 1029.1547929 864.85524691 1034.8134523 870.51287155 1040.47652444 C873.7341214 1043.70055948 876.95766304 1046.92220406 880.18796425 1050.13717227 C883.13367751 1053.06899283 886.07222869 1056.00780758 889.00550598 1058.95206871 C890.05452674 1060.00263072 891.10600835 1061.0507436 892.16040835 1062.09590661 C902.18407696 1072.03702644 911.36767327 1082.84518024 918.625 1095 C919.07576904 1095.75112061 919.52653809 1096.50224121 919.9909668 1097.27612305 C934.23515922 1121.54709488 940.37868282 1147.31683348 940.3125 1175.3125 C940.31168427 1176.60950333 940.31168427 1176.60950333 940.31085205 1177.93270874 C940.27370599 1190.76875272 939.6911687 1202.89203135 935.9375 1215.25 C935.72319336 1215.99862305 935.50888672 1216.74724609 935.28808594 1217.51855469 C924.27619048 1255.55527656 898.56494862 1289.57864721 863.875 1309.125 C861.2536101 1310.55138221 858.60774623 1311.91753517 855.9375 1313.25 C855.30553711 1313.56662598 854.67357422 1313.88325195 854.02246094 1314.20947266 C833.64109725 1324.21211527 812.19873493 1328.62473359 789.61376953 1328.62060547 C786.96970597 1328.62494712 784.32736032 1328.6612888 781.68359375 1328.69921875 C766.07996404 1328.80274753 750.71285108 1326.57419065 736 1321.1875 C734.79549194 1320.75522095 734.79549194 1320.75522095 733.56665039 1320.31420898 C719.36854968 1314.99454969 705.77995368 1307.72739949 693.9375 1298.25 C693.11781382 1297.60406028 692.29812763 1296.95812057 691.45360247 1296.29260692 C684.40957741 1290.65231621 677.95908315 1284.55227933 671.60447407 1278.16306973 C670.50230884 1277.06238729 669.39970479 1275.96214414 668.29670718 1274.86229584 C665.2821253 1271.85380871 662.27376025 1268.83917305 659.26641852 1265.8234509 C655.98794453 1262.5380732 652.70363014 1259.25854242 649.42006606 1255.97825342 C643.67120904 1250.23353422 637.92606199 1244.4851258 632.18335152 1238.73426247 C623.64418593 1230.18300771 615.09927261 1221.63751373 606.55318378 1213.09317871 C592.17622681 1198.71884738 577.80392349 1184.33987159 563.43427467 1169.95823479 C549.20833342 1155.72045589 534.98032275 1141.48475024 520.74954796 1127.25180244 C519.8644285 1126.36654551 518.97930905 1125.48128857 518.06736779 1124.56920567 C513.57220701 1120.07336822 509.07700928 1115.57756773 504.58179732 1111.08178145 C472.74966658 1079.24545088 440.92217372 1047.40448763 409.09741211 1015.56079102 C401.38699631 1007.8457918 393.67656418 1000.1308089 385.96606445 992.41589355 C385.48784364 991.93739884 385.00962282 991.45890413 384.51691047 990.96590957 C362.27604692 968.71235247 340.03256015 946.46141817 317.78839842 924.21115793 C316.34388296 922.76624634 314.89936863 921.32133363 313.45485453 919.87642068 C303.88179799 910.30072452 294.30869628 900.72507352 284.73556433 891.14945276 C265.23432443 871.64314213 245.73337125 852.13654487 226.23258972 832.629776 C225.33599249 831.73290419 224.43939526 830.83603238 223.51562841 829.91198263 C163.65147481 770.02943047 103.79396836 710.14023393 43.9375 650.25 C42.49817705 650.72754112 41.05904561 651.20565946 39.61999512 651.684021 C38.81855827 651.95021114 38.01712143 652.21640129 37.19139862 652.49065781 C34.59687791 653.36475615 32.03080322 654.30068312 29.46875 655.265625 C-54.20592353 686.3811447 -147.00994007 688.65228194 -229.05859375 651.1171875 C-261.57908907 635.82509132 -293.9389642 613.09769903 -317.0625 585.25 C-317.94668701 584.24776077 -318.83367094 583.2479856 -319.72265625 582.25 C-331.41771898 569.0336752 -341.46919986 554.66058249 -350.0625 539.25 C-350.52124512 538.42822266 -350.97999023 537.60644531 -351.45263672 536.75976562 C-393.410801 460.78408537 -397.53880692 371.31705249 -374.07421875 288.80859375 C-370.59044219 277.11882726 -366.33326621 265.67058448 -362.0625 254.25 C-359.0625 254.25 -359.0625 254.25 -357.37412113 255.57038605 C-356.75186415 256.19595048 -356.12960717 256.82151491 -355.48849392 257.46603584 C-354.76762488 258.18339853 -354.04675584 258.90076123 -353.30404228 259.63986218 C-352.5141757 260.44119576 -351.72430913 261.24252934 -350.9105072 262.06814575 C-350.06970425 262.9092077 -349.22890129 263.75026964 -348.36261946 264.61681831 C-346.02308547 266.96002384 -343.69049512 269.30978136 -341.36049473 271.66244459 C-338.84842054 274.19564339 -336.32766921 276.72017986 -333.80786133 279.24568176 C-329.43906366 283.62656989 -325.07558069 288.01269444 -320.71540642 292.40216446 C-314.40241515 298.75720282 -308.07928106 305.10207233 -301.75321931 311.44409703 C-291.47894097 321.74448095 -281.2099078 332.05007542 -270.94555664 342.36035156 C-270.33081899 342.97783496 -269.71608134 343.59531835 -269.08271528 344.23151337 C-262.2313977 351.11362125 -255.38108464 357.99672803 -248.53161621 364.88067627 C-246.05178142 367.37294829 -243.57192345 369.86519726 -241.09204102 372.35742188 C-240.17424219 373.27979537 -240.17424219 373.27979537 -239.23790198 374.22080268 C-229.02288508 384.48628813 -218.80003692 394.7439371 -208.57119566 404.99564731 C-202.26422482 411.31741162 -195.96414423 417.64589324 -189.67284793 423.98325746 C-185.35585323 428.33089549 -181.03166306 432.67128899 -176.7018274 437.00613852 C-174.2063243 439.50502405 -171.71419713 442.00704584 -169.23089027 444.51805687 C-166.53261035 447.24630225 -163.81875806 449.95872036 -161.1033783 452.66995239 C-160.32912677 453.45790164 -159.55487525 454.24585089 -158.75716156 455.05767739 C-149.49976049 464.23850036 -139.36641318 470.24246045 -126.1875 470.6875 C-111.7885453 470.3310135 -101.31416005 462.97035581 -91.45956421 453.05493164 C-90.75035879 452.35322845 -90.04115337 451.65152527 -89.31045687 450.92855835 C-86.95685431 448.5961369 -84.61395098 446.25326949 -82.27099609 443.91015625 C-80.57720082 442.22698432 -78.88280305 440.54441851 -77.18785095 438.8624115 C-72.60007287 434.30532655 -68.02205701 429.73853751 -63.44674253 425.16894531 C-60.58425431 422.31022204 -57.71924586 419.45403384 -54.85368729 416.59838867 C-46.90324962 408.67486814 -38.95501434 400.7491595 -31.01680565 392.81338501 C-30.50998592 392.30672086 -30.0031662 391.80005671 -29.4809883 391.2780391 C-28.45379237 390.2511342 -27.42659927 389.22422647 -26.39940898 388.19731593 C-25.88958644 387.68763624 -25.3797639 387.17795656 -24.85449219 386.65283203 C-24.34404152 386.14252103 -23.83359085 385.63221003 -23.30767198 385.10643506 C-15.03969649 376.84159361 -6.75512577 368.59360957 1.53698559 360.35299051 C10.07199735 351.87055387 18.59372687 343.3749642 27.10221231 334.86591816 C31.8709951 330.09738707 36.64502283 325.3344025 41.43358231 320.58572388 C45.93898168 316.116306 50.42713347 311.63024663 54.90293694 307.13119698 C56.54192297 305.48936203 58.18682851 303.8534102 59.83823967 302.22407341 C71.37853413 290.82844848 81.88677276 279.79741495 82.25 262.6875 C82.10587414 247.25001853 73.93336899 236.76781628 63.35745239 226.30918884 C62.08181956 225.0297111 62.08181956 225.0297111 60.78041637 223.72438532 C58.43919523 221.37910219 56.0914945 219.04068114 53.7407074 216.70501053 C51.19953634 214.17686869 48.66711673 211.63998593 46.1335907 209.10418701 C41.7498041 204.71883201 37.36058503 200.33897674 32.96756363 195.96287346 C26.61610795 189.63586212 20.27301237 183.30052302 13.93188678 176.96316058 C3.64209592 166.6799257 -6.65436801 156.40339971 -16.95507812 146.13110352 C-26.9576281 136.15611624 -36.95700323 126.17796387 -46.95214844 116.19555664 C-47.87724605 115.27164128 -47.87724605 115.27164128 -48.82103251 114.32906096 C-51.91516311 111.23884565 -55.00923165 108.14856819 -58.10326934 105.05825984 C-83.74673171 79.44586677 -109.40104532 53.84436565 -135.0625 28.25 C-132.96787335 24.0607467 -126.07227474 23.11130212 -121.875 21.625 C-120.94288696 21.2941893 -120.94288696 21.2941893 -119.99194336 20.95669556 C-81.3291151 7.31052049 -40.99270841 0.03044371 0 0 Z M717.625 1112.5625 C701.74597051 1131.6240354 697.35814243 1152.11311649 698.9375 1176.25 C701.19037848 1195.36313037 712.88796099 1212.81249259 727.15625 1225.12109375 C743.53349139 1237.65704397 763.55524525 1243.67144439 784.15625 1241.77734375 C805.58463734 1238.78888064 824.69855701 1228.61254818 837.9375 1211.25 C851.20017662 1192.24676186 856.33587578 1170.81051414 852.28515625 1147.84375 C847.18472056 1127.00420161 834.59995493 1109.63140847 816.6875 1098.0625 C784.058923 1078.6833335 743.56329374 1085.00622303 717.625 1112.5625 Z " fill="#57C8E2" transform="translate(888.0625,499.75)"/>
</svg>
