<?xml version="1.0" encoding="UTF-8"?>
<svg version="1.1" xmlns="http://www.w3.org/2000/svg" width="523" height="477">
<path d="M0 0 C5.40961538 2.425 5.40961538 2.425 7.625 3.625 C7.625 4.285 7.625 4.945 7.625 5.625 C8.285 5.625 8.945 5.625 9.625 5.625 C9.625 6.285 9.625 6.945 9.625 7.625 C10.285 7.625 10.945 7.625 11.625 7.625 C16.42888465 13.77203627 19.66979474 20.62764103 22.50390625 27.84765625 C23.4709688 30.2434105 24.53622386 32.47359719 25.75 34.75 C27.65103337 38.42991198 28.78397553 42.18384117 29.8984375 46.1640625 C30.589528 48.50485292 31.41090796 50.73338076 32.3125 53 C33.625 56.625 33.625 56.625 33.625 60.625 C34.800625 60.563125 35.97625 60.50125 37.1875 60.4375 C42.21793892 60.4217306 46.86941862 61.4196652 51.76855469 62.48974609 C56.01648817 63.38620509 60.10470207 63.86144209 64.4375 64.0625 C70.17263668 64.3902221 75.64090798 65.2528138 81.25 66.4375 C82.02061768 66.59081787 82.79123535 66.74413574 83.58520508 66.90209961 C88.05626224 67.90111615 90.67577585 68.90388015 93.625 72.625 C94.181875 73.32625 94.73875 74.0275 95.3125 74.75 C96.95190025 78.34106722 97.07787691 81.50287082 97.21875 85.41796875 C97.41984375 86.51044922 97.41984375 86.51044922 97.625 87.625 C101.10590156 89.94560104 102.69888265 89.87461424 106.8125 90 C112.71225288 90.36134344 116.64825544 91.56505265 121.625 94.625 C122.95314022 95.3019533 124.28527964 95.97126337 125.625 96.625 C125.625 97.285 125.625 97.945 125.625 98.625 C126.615 98.955 127.605 99.285 128.625 99.625 C133.49089052 105.07483354 134.71643908 111.28596666 135.6875 118.3125 C135.84323486 119.32965088 135.99896973 120.34680176 136.15942383 121.39477539 C136.67271448 124.80176453 137.15318993 128.21202422 137.625 131.625 C137.89425293 133.57116211 137.89425293 133.57116211 138.16894531 135.55664062 C138.35498399 136.90752919 138.5408556 138.25844078 138.7265625 139.609375 C138.81785934 140.27310623 138.90915619 140.93683746 139.0032196 141.62068176 C139.45187655 144.89326036 139.89131766 148.16669266 140.31860352 151.44213867 C140.47514404 152.62525635 140.63168457 153.80837402 140.79296875 155.02734375 C140.92985107 156.08429443 141.0667334 157.14124512 141.20776367 158.23022461 C141.37897792 160.57072578 141.37897792 160.57072578 142.625 161.625 C142.78792634 164.02363777 142.90495855 166.41104567 143 168.8125 C143.32998988 175.51129448 144.38659379 181.74573484 145.9296875 188.28515625 C146.82404878 192.58110508 147.16541502 196.8242072 147.4140625 201.19921875 C147.54232547 203.76506784 147.54232547 203.76506784 148.625 206.625 C149.28676455 211.7010349 149.80266201 216.55762081 147.203125 221.12109375 C143.70886743 225.19026122 140.52962264 228.15593051 135.109375 229.03125 C129.01392213 229.24023696 125.02067141 228.65730467 120.34375 224.59375 C115.91856354 219.52490006 113.61427545 213.50831896 112.203125 206.98828125 C109.41805734 195.60337627 104.77671163 184.56625109 100.625 173.625 C98.29394893 167.41407868 96.18729546 161.21838313 94.3515625 154.84375 C93.6088085 152.38288822 93.6088085 152.38288822 91.9375 149.3125 C90.52502114 146.42028139 90.51396406 144.78159321 90.625 141.625 C89.45259766 141.63388245 88.28019531 141.64276489 87.07226562 141.6519165 C76.00827096 141.73310249 64.94433696 141.79301358 53.88011169 141.83224869 C48.19224607 141.85309819 42.50462146 141.88136804 36.81689453 141.92675781 C31.32500854 141.97030904 25.83335398 141.99415694 20.34130859 142.00450897 C18.2489864 142.01188365 16.15667646 142.02628468 14.06445312 142.04792023 C11.12732857 142.07707715 8.1911529 142.08095082 5.25390625 142.07910156 C4.3943483 142.09348267 3.53479034 142.10786377 2.64918518 142.12268066 C-3.74136518 142.07931694 -9.24092596 140.66796084 -13.93870544 136.1067543 C-18.16628413 131.16228846 -18.59221879 127.61640492 -18.875 121.3125 C-18.95863792 119.65099115 -19.04327674 117.9895324 -19.12890625 116.328125 C-19.17031738 115.51537109 -19.21172852 114.70261719 -19.25439453 113.86523438 C-19.52829296 108.77759879 -19.96007318 103.70266691 -20.375 98.625 C-20.52117125 96.79820409 -20.6669689 94.97137827 -20.8125 93.14453125 C-21.24294247 87.74400474 -21.67563594 82.34366123 -22.10888672 76.94335938 C-22.36591324 73.73830942 -22.62251823 70.53322609 -22.87890625 67.328125 C-23.002052 65.78970947 -23.002052 65.78970947 -23.12768555 64.22021484 C-23.29245435 62.15808372 -23.45668033 60.09590916 -23.62036133 58.03369141 C-24.04855649 52.6488514 -24.488121 47.26527374 -24.9453125 41.8828125 C-25.038125 40.77228516 -25.1309375 39.66175781 -25.2265625 38.51757812 C-25.40256054 36.41440154 -25.58197502 34.31150661 -25.765625 32.20898438 C-27.39561456 12.55709407 -27.39561456 12.55709407 -23.375 5.625 C-16.85880835 -1.89368267 -9.37271871 -3.45772582 0 0 Z " fill="#FD6602" transform="translate(86.375,224.375)"/>
<path d="M0 0 C0.763125 0.33 1.52625 0.66 2.3125 1 C2.3125 1.66 2.3125 2.32 2.3125 3 C2.89 3.020625 3.4675 3.04125 4.0625 3.0625 C7.01031385 4.29075577 7.98080363 6.15270333 9.47021484 8.8972168 C10.98397162 12.67634349 10.85424031 16.35369994 10.75 20.375 C10.7396875 21.27259033 10.729375 22.17018066 10.71875 23.0949707 C10.52185392 31.55788271 9.54460937 39.9174713 8.38061523 48.29638672 C7.62642668 53.78358902 7.2263549 59.04017466 7.31787109 64.5769043 C7.30876637 68.68437525 6.83171155 72.73448694 6.375 76.8125 C5.25700184 87.08980157 4.4578307 97.37127518 3.84765625 107.69140625 C3.76966797 108.98498047 3.69167969 110.27855469 3.61132812 111.61132812 C3.49204107 113.6056893 3.37292829 115.60007513 3.26293945 117.5949707 C3.15339652 119.56508007 3.03194359 121.53451588 2.91015625 123.50390625 C2.84320557 124.65705322 2.77625488 125.8102002 2.70727539 126.99829102 C2.33681207 129.81514106 1.76729226 131.59108834 0.3125 134 C-0.3475 134 -1.0075 134 -1.6875 134 C-1.6875 134.66 -1.6875 135.32 -1.6875 136 C-2.3475 136 -3.0075 136 -3.6875 136 C-3.6875 136.66 -3.6875 137.32 -3.6875 138 C-9.85671179 142.81969671 -18.16583747 142.1485278 -25.64208984 142.12939453 C-26.49835968 142.13114685 -27.35462952 142.13289917 -28.23684692 142.13470459 C-31.04073162 142.13907299 -33.84455227 142.13620447 -36.6484375 142.1328125 C-38.60519421 142.13348661 -40.56195085 142.13445752 -42.51870728 142.13571167 C-46.60541588 142.13718152 -50.69210255 142.13505563 -54.77880859 142.13037109 C-60.02469295 142.1246515 -65.27052639 142.12797135 -70.51640892 142.13394356 C-74.55002225 142.13754909 -78.5836234 142.13641101 -82.61723709 142.13381577 C-84.55259838 142.13314765 -86.48796076 142.13397091 -88.42332077 142.13629532 C-91.11866969 142.13882415 -93.8139347 142.134979 -96.50927734 142.12939453 C-97.31238342 142.13141876 -98.1154895 142.13344299 -98.94293213 142.13552856 C-104.45896206 142.11426897 -104.45896206 142.11426897 -106.6875 141 C-106.749375 142.216875 -106.81125 143.43375 -106.875 144.6875 C-107.45676526 150.10305011 -109.36323388 154.78311774 -111.43359375 159.7890625 C-112.75145138 163.00805298 -112.75145138 163.00805298 -113.6640625 166.48046875 C-114.70750606 170.06879948 -116.07444219 173.2904764 -117.625 176.6875 C-120.06125826 182.14539422 -121.75466149 187.5198873 -122.94921875 193.37890625 C-123.77145689 196.29806915 -125.12235252 198.41445767 -126.6875 201 C-127.49420713 203.5434606 -127.49420713 203.5434606 -128.0625 206.1875 C-130.17704437 214.35933292 -133.53549108 222.07459986 -139.6875 228 C-142.52757368 228.88159099 -145.16842381 228.90592282 -148.125 228.8125 C-148.8869165 228.80057617 -149.64883301 228.78865234 -150.43383789 228.77636719 C-153.84088399 228.60068157 -156.11598402 228.34685756 -159.0625 226.55859375 C-160.61843858 224.75759484 -161.67083428 223.14677912 -162.6875 221 C-163.05359375 220.36320313 -163.4196875 219.72640625 -163.796875 219.0703125 C-166.354467 213.12503285 -164.79603939 205.94807359 -163.375 199.875 C-161.89931274 193.54184218 -161.07757858 187.27436722 -160.375 180.8125 C-159.03266304 168.60565282 -156.98032749 156.56689938 -154.7565918 144.49536133 C-153.28951922 136.39812713 -152.30223182 128.49510553 -151.9699707 120.26782227 C-151.26256281 112.08402394 -147.76759741 103.68489108 -141.6875 98 C-139.5 97.2890625 -139.5 97.2890625 -137.6875 97 C-137.6875 96.34 -137.6875 95.68 -137.6875 95 C-136.44014433 94.3490741 -135.18948168 93.70448331 -133.9375 93.0625 C-132.89335937 92.52302734 -132.89335937 92.52302734 -131.828125 91.97265625 C-128.06158505 90.26121748 -124.81045439 89.86243002 -120.6875 89.875 C-119.4190625 89.87113281 -119.4190625 89.87113281 -118.125 89.8671875 C-115.84051056 89.99166289 -113.87758426 90.36122543 -111.6875 91 C-111.6875 89.68 -111.6875 88.36 -111.6875 87 C-112.3475 87 -113.0075 87 -113.6875 87 C-114.00313182 81.73946963 -113.35340937 78.55426184 -110.6875 74 C-110.0275 74 -109.3675 74 -108.6875 74 C-108.0275 72.68 -107.3675 71.36 -106.6875 70 C-106.0275 70 -105.3675 70 -104.6875 70 C-104.6875 69.34 -104.6875 68.68 -104.6875 68 C-92.23902366 66.01824874 -92.23902366 66.01824874 -87 65.5 C-83.93688922 65.18924963 -81.00605185 64.66367378 -78 64 C-72.70829607 62.88725852 -67.4406944 62.54862447 -62.05078125 62.21875 C-57.90741343 61.94926266 -53.80896405 61.49741808 -49.6875 61 C-49.52894531 60.30777344 -49.37039063 59.61554688 -49.20703125 58.90234375 C-46.41981424 47.21451108 -42.8363049 35.86969923 -37.6875 25 C-37.0275 25 -36.3675 25 -35.6875 25 C-35.501875 23.88625 -35.501875 23.88625 -35.3125 22.75 C-34.73263299 20.19858515 -33.95041261 18.2732427 -32.6875 16 C-32.0275 16 -31.3675 16 -30.6875 16 C-30.0275 14.02 -29.3675 12.04 -28.6875 10 C-28.0275 10 -27.3675 10 -26.6875 10 C-26.2853125 9.0409375 -26.2853125 9.0409375 -25.875 8.0625 C-24.6875 6 -24.6875 6 -21.6875 5 C-21.6875 4.34 -21.6875 3.68 -21.6875 3 C-14.74885625 -1.93414666 -8.16328358 -2.21377182 0 0 Z " fill="#FE6601" transform="translate(452.6875,224)"/>
<path d="M0 0 C1.187715 -0.00846954 2.37542999 -0.01693909 3.59913635 -0.02566528 C6.84518461 -0.04501404 10.09087915 -0.05081527 13.33697462 -0.04891777 C16.05300811 -0.04879776 18.76898833 -0.05737457 21.48500693 -0.06569529 C27.89645381 -0.08490619 34.30777051 -0.0878218 40.71923828 -0.08105469 C47.31888509 -0.07441673 53.9179726 -0.09727295 60.517506 -0.13436842 C66.19671851 -0.16512472 71.87575166 -0.17641904 77.55504572 -0.1725316 C80.94128129 -0.17047002 84.32708156 -0.17585045 87.71323776 -0.20042419 C91.4928682 -0.2225948 95.27115482 -0.21291898 99.05078125 -0.1953125 C100.16273361 -0.20857574 101.27468597 -0.22183899 102.42033386 -0.23550415 C111.06672166 -0.14207053 115.5681754 2.37910056 122.02978516 7.85742188 C126.02504548 12.67523579 126.50818518 18.02240793 126.76806641 24.09570312 C126.80539383 24.86344559 126.84272125 25.63118805 126.88117981 26.42219543 C127.33627738 36.94996494 127.34081036 47.48939698 127.34008789 58.02514648 C127.34228792 61.61193486 127.36055689 65.19842136 127.37939453 68.78515625 C127.46241886 101.04701386 127.46241886 101.04701386 122.09228516 108.10742188 C116.9427084 112.93054284 112.39516469 115.41021045 105.24462891 115.43164062 C101.53117827 115.24220564 97.84614095 114.86735894 94.15478516 114.41992188 C96.04086364 118.93010956 98.05056991 123.28273476 100.42431641 127.55664062 C100.83045166 128.29406494 101.23658691 129.03148926 101.6550293 129.79125977 C102.4765085 131.27261834 103.31003534 132.74737134 104.15649414 134.21459961 C106.74711196 138.9066825 107.63324859 142.05831691 107.15478516 147.41992188 C106.49478516 147.41992188 105.83478516 147.41992188 105.15478516 147.41992188 C105.15478516 148.07992187 105.15478516 148.73992187 105.15478516 149.41992188 C104.49478516 149.41992188 103.83478516 149.41992188 103.15478516 149.41992188 C103.15478516 150.07992187 103.15478516 150.73992187 103.15478516 151.41992188 C96.98184263 152.92103445 96.98184263 152.92103445 93.24072266 150.65429688 C91.89880859 149.42453125 91.89880859 149.42453125 90.52978516 148.16992188 C86.6392648 144.6693101 86.6392648 144.6693101 82.31884766 141.74804688 C81.60470703 141.30976563 80.89056641 140.87148437 80.15478516 140.41992188 C80.15478516 139.75992188 80.15478516 139.09992188 80.15478516 138.41992188 C79.60306641 138.17242187 79.05134766 137.92492187 78.48291016 137.66992188 C75.70341808 136.17757714 73.37331446 134.38319664 70.90478516 132.41992188 C70.01275391 131.71867188 69.12072266 131.01742187 68.20166016 130.29492188 C67.18845703 129.36679687 67.18845703 129.36679687 66.15478516 128.41992188 C66.15478516 127.75992188 66.15478516 127.09992188 66.15478516 126.41992188 C64.83478516 126.08992188 63.51478516 125.75992188 62.15478516 125.41992188 C61.66811218 119.41762185 63.45595537 114.10291199 65.15478516 108.41992188 C68.12478516 108.91492188 68.12478516 108.91492188 71.15478516 109.41992188 C71.34041016 108.16179687 71.52603516 106.90367187 71.71728516 105.60742188 C72.03369141 103.46289063 72.03369141 103.46289063 73.15478516 101.41992188 C79.364299 97.52596696 85.71191867 98.10543784 92.84228516 98.29492188 C95.07527782 98.33833054 97.30835646 98.37756932 99.54150391 98.41210938 C100.5233667 98.43644043 101.50522949 98.46077148 102.5168457 98.48583984 C104.93161965 98.42549843 106.84069502 98.04522475 109.15478516 97.41992188 C110.16663335 89.40771411 110.3006173 81.48453304 110.28759766 73.41601562 C110.28855438 72.09755142 110.28951111 70.77908722 110.29049683 69.42066956 C110.29196097 66.64640108 110.28986057 63.87216506 110.28515625 61.09790039 C110.27945414 57.56564728 110.28274922 54.0334701 110.28872871 50.50121975 C110.29323718 47.0978125 110.29006909 43.69442503 110.28759766 40.29101562 C110.290634 38.40629799 110.290634 38.40629799 110.29373169 36.48350525 C110.29057953 35.29519608 110.28742737 34.1068869 110.28417969 32.88256836 C110.28338409 31.84905746 110.2825885 30.81554657 110.2817688 29.75071716 C110.12388595 25.60943222 109.6604581 21.53126403 109.15478516 17.41992188 C94.0993633 17.37320613 79.04394707 17.33793512 63.98846817 17.31629753 C56.99798409 17.3059839 50.00754503 17.29192191 43.01708984 17.26904297 C36.27385589 17.24698367 29.53067843 17.23536055 22.78740692 17.23016739 C20.21174126 17.2264654 17.63607822 17.21923657 15.06043243 17.20846176 C11.45933954 17.19399314 7.85844139 17.19194201 4.25732422 17.19287109 C3.18701965 17.18568054 2.11671509 17.17848999 1.01397705 17.17108154 C0.03243652 17.17383087 -0.949104 17.1765802 -1.96038818 17.17941284 C-3.23799326 17.17664746 -3.23799326 17.17664746 -4.54140854 17.17382622 C-7.08787443 17.4458431 -8.699234 18.03257367 -10.84521484 19.41992188 C-11.54456624 21.6053374 -11.54456624 21.6053374 -11.59521484 24.04492188 C-11.68029297 25.27082031 -11.68029297 25.27082031 -11.76708984 26.52148438 C-11.79287109 27.14796875 -11.81865234 27.77445313 -11.84521484 28.41992188 C-10.91708984 28.21367188 -9.98896484 28.00742187 -9.03271484 27.79492188 C3.93473055 26.14498846 16.42238538 33.36230778 26.54931641 40.83789062 C30.99098442 44.38765743 34.67901998 47.91482259 38.15478516 52.41992188 C38.74259766 53.11472656 39.33041016 53.80953125 39.93603516 54.52539062 C44.31618902 59.83134974 46.97578553 64.9198552 49.15478516 71.41992188 C49.40196289 72.05744385 49.64914062 72.69496582 49.90380859 73.35180664 C52.13653069 79.38189852 52.71825312 84.95759659 52.90478516 91.35742188 C52.96859375 92.74477539 52.96859375 92.74477539 53.03369141 94.16015625 C53.3417346 102.30048285 53.59437357 110.55955966 49.84228516 117.98242188 C49.39884766 118.88734375 48.95541016 119.79226562 48.49853516 120.72460938 C48.05509766 121.6140625 47.61166016 122.50351563 47.15478516 123.41992188 C46.37476596 125.14496432 45.60310996 126.87382821 44.84228516 128.60742188 C44.51615234 129.34347656 44.19001953 130.07953125 43.85400391 130.83789062 C43.62326172 131.35996094 43.39251953 131.88203125 43.15478516 132.41992188 C42.49478516 132.41992188 41.83478516 132.41992188 41.15478516 132.41992188 C40.72166016 133.28617187 40.72166016 133.28617187 40.27978516 134.16992188 C39.23811849 136.25325521 38.19645182 138.33658854 37.15478516 140.41992188 C36.49478516 140.41992188 35.83478516 140.41992188 35.15478516 140.41992188 C34.82478516 141.40992188 34.49478516 142.39992187 34.15478516 143.41992188 C32.19381599 145.18957698 30.23724052 146.80579163 28.15478516 148.41992188 C27.56439453 148.90847656 26.97400391 149.39703125 26.36572266 149.90039062 C21.07708881 154.1334741 15.44992151 156.95589581 9.15478516 159.41992188 C8.51492676 159.67741211 7.87506836 159.93490234 7.21582031 160.20019531 C0.97302411 162.52459596 -4.96810266 163.07401814 -11.59521484 163.29492188 C-12.65272949 163.33464111 -13.71024414 163.37436035 -14.79980469 163.4152832 C-23.63483879 163.63449629 -31.29410636 162.7288348 -39.52294922 159.30615234 C-43.47920967 158.25080068 -46.63918463 158.64827643 -50.58740234 159.35351562 C-51.67820602 159.52778831 -51.67820602 159.52778831 -52.79104614 159.70558167 C-55.10322751 160.07597634 -57.41171361 160.46478843 -59.72021484 160.85742188 C-62.02169289 161.24535217 -64.32350354 161.62870106 -66.62796021 161.99855042 C-68.05671956 162.22809246 -69.48390424 162.46776471 -70.90890503 162.71958923 C-76.87999644 163.68325125 -82.09053642 163.33814801 -87.84521484 161.41992188 C-89.05142238 155.79095337 -89.07365808 152.53580418 -86.22412109 147.50195312 C-83.18193319 142.90850793 -79.7759024 138.54155655 -76.06787109 134.46679688 C-74.61271223 132.47136009 -74.61271223 132.47136009 -75.00537109 130.01367188 C-75.91545231 127.20300246 -77.04164946 124.60091772 -78.28271484 121.91992188 C-85.03099915 105.94638186 -85.09850092 85.79658135 -78.72021484 69.66992188 C-78.10756934 68.24786881 -77.48735974 66.82890001 -76.84521484 65.41992188 C-76.18521484 65.41992188 -75.52521484 65.41992188 -74.84521484 65.41992188 C-74.76271484 64.71867187 -74.68021484 64.01742187 -74.59521484 63.29492188 C-73.66512479 59.72957668 -72.07835116 57.32976616 -69.84521484 54.41992188 C-69.18521484 54.41992188 -68.52521484 54.41992188 -67.84521484 54.41992188 C-67.50490234 53.33710937 -67.50490234 53.33710937 -67.15771484 52.23242188 C-65.58186356 48.8555977 -63.63644868 46.86225148 -60.84521484 44.41992188 C-60.18521484 44.41992188 -59.52521484 44.41992188 -58.84521484 44.41992188 C-58.84521484 43.75992188 -58.84521484 43.09992188 -58.84521484 42.41992188 C-56.78700436 40.96549279 -54.75237828 39.6484865 -52.59521484 38.35742188 C-52.00869141 37.99326172 -51.42216797 37.62910156 -50.81787109 37.25390625 C-47.84797978 35.44861277 -45.23144053 34.15243919 -41.84521484 33.41992188 C-40.62215223 49.62550154 -40.62215223 49.62550154 -43.45068359 53.77539062 C-45.53271484 55.23242188 -45.53271484 55.23242188 -47.60693359 56.25195312 C-55.95401946 60.60758781 -60.71166582 70.95888414 -64.02490234 79.43945312 C-67.79921807 92.57766645 -67.22030053 107.34397727 -60.72412109 119.52148438 C-59.57496211 121.29784003 -58.34419387 122.92094285 -56.84521484 124.41992188 C-56.80457652 126.08609303 -56.80249384 127.75380282 -56.84521484 129.41992188 C-56.18521484 129.41992188 -55.52521484 129.41992188 -54.84521484 129.41992188 C-54.84521484 130.40992188 -54.84521484 131.39992187 -54.84521484 132.41992188 C-55.50521484 132.41992188 -56.16521484 132.41992188 -56.84521484 132.41992188 C-56.92771484 133.12117187 -57.01021484 133.82242188 -57.09521484 134.54492188 C-58.0154921 138.07265134 -59.72648462 140.48103801 -61.84521484 143.41992188 C-57.25826414 143.58980894 -53.21445437 143.38686432 -48.72021484 142.41992188 C-42.70356753 141.15807183 -38.76970239 140.93396323 -33.03271484 143.35742188 C-22.63540092 147.69476289 -7.98187887 147.90613788 2.71728516 144.16992188 C6.10771989 142.44388237 9.26052279 140.56222399 12.39306641 138.40820312 C14.15478516 137.41992188 14.15478516 137.41992188 17.15478516 137.41992188 C17.15478516 136.75992188 17.15478516 136.09992188 17.15478516 135.41992188 C18.57902124 134.26696885 20.00389133 133.11478926 21.43212891 131.96679688 C26.64145759 127.28903235 29.47057946 121.8013461 32.15478516 115.41992188 C30.28729614 115.46705322 30.28729614 115.46705322 28.38208008 115.51513672 C23.71747201 115.62458286 19.05297492 115.69292333 14.38745117 115.74951172 C12.3768397 115.77949438 10.36635689 115.82029553 8.35620117 115.87255859 C-13.65597047 116.43010553 -13.65597047 116.43010553 -21.84521484 109.41992188 C-27.40381382 103.57876277 -27.9940352 98.31916825 -28.0222168 90.56542969 C-28.03207359 89.38413986 -28.03207359 89.38413986 -28.04212952 88.1789856 C-28.06181296 85.57700497 -28.07351428 82.97508194 -28.08349609 80.37304688 C-28.08757162 79.48203026 -28.09164715 78.59101364 -28.09584618 77.67299652 C-28.11668618 72.95647922 -28.13099663 68.23999084 -28.14038086 63.5234375 C-28.1514387 58.66346525 -28.18583728 53.80395167 -28.22555256 48.94414139 C-28.25175413 45.1967893 -28.26007585 41.44954592 -28.26366234 37.70211029 C-28.26851943 35.91123101 -28.2801083 34.12035631 -28.29870033 32.32956696 C-28.32316697 29.8166768 -28.32211339 27.3049661 -28.31518555 24.79199219 C-28.32799561 24.06027802 -28.34080566 23.32856384 -28.35400391 22.57467651 C-28.2944855 16.61601697 -26.56081037 11.37467288 -22.4686327 6.9221077 C-15.29880368 0.63142414 -9.16126855 -0.02405737 0 0 Z M-11.84521484 44.41992188 C-11.99725487 51.60958788 -12.10238385 58.79884008 -12.17480469 65.98974609 C-12.2049917 68.43619274 -12.24594617 70.88253105 -12.29785156 73.32861328 C-12.37057741 76.84369613 -12.40465306 80.35734945 -12.43115234 83.87304688 C-12.46212006 84.96796448 -12.49308777 86.06288208 -12.5249939 87.190979 C-12.62301977 93.26153757 -12.62301977 93.26153757 -9.32421875 98.11499023 C-5.30672179 99.62190401 -1.82490652 99.94609247 2.40478516 99.84570312 C3.18112305 99.84241501 3.95746094 99.83912689 4.75732422 99.83573914 C7.22372434 99.82007311 9.6887395 99.77607937 12.15478516 99.73242188 C13.81102401 99.72092022 15.46727575 99.7111381 17.12353516 99.703125 C18.71729894 99.68969744 20.31105096 99.67477351 21.90478516 99.65820312 C23.01128418 99.64712273 23.01128418 99.64712273 24.14013672 99.63581848 C28.23655638 99.56080574 32.13337299 99.20515635 36.15478516 98.41992188 C37.01859574 88.83402391 36.72436736 80.97679999 32.52978516 72.16992188 C32.03381836 71.11720093 32.03381836 71.11720093 31.52783203 70.04321289 C29.09338423 65.31586827 26.3447184 62.65707578 22.15478516 59.41992188 C21.49478516 58.42992187 20.83478516 57.43992187 20.15478516 56.41992188 C19.49478516 56.41992188 18.83478516 56.41992188 18.15478516 56.41992188 C17.82478516 55.42992187 17.49478516 54.43992187 17.15478516 53.41992188 C16.16478516 53.41992188 15.17478516 53.41992188 14.15478516 53.41992188 C14.15478516 52.75992188 14.15478516 52.09992188 14.15478516 51.41992188 C12.28510911 50.43062727 10.40877138 49.45391718 8.52978516 48.48242188 C7.48564453 47.93714844 6.44150391 47.391875 5.36572266 46.83007812 C0.84876954 44.84635541 -3.16036898 44.37591271 -8.0390625 44.40063477 C-9.29509277 44.40699951 -10.55112305 44.41336426 -11.84521484 44.41992188 Z " fill="#FA6808" transform="translate(242.84521484375,23.580078125)"/>
<path d="M0 0 C44.88 0 89.76 0 136 0 C136.97369271 3.89477082 137.13346407 7.00495813 137.125 11 C137.12757813 12.216875 137.13015625 13.43375 137.1328125 14.6875 C137.02616155 17.34750011 136.79307874 19.48228971 136 22 C132.55071641 22.78073228 129.37625112 23.12247152 125.8425293 23.11352539 C124.84186935 23.11344986 123.84120941 23.11337433 122.81022644 23.11329651 C121.7423439 23.10813522 120.67446136 23.10297394 119.57421875 23.09765625 C118.47149124 23.0962413 117.36876373 23.09482635 116.23262024 23.09336853 C112.71755233 23.08778004 109.20254859 23.07522959 105.6875 23.0625 C103.30143321 23.05748352 100.91536543 23.05292087 98.52929688 23.04882812 C92.6861761 23.03781437 86.84309263 23.02108764 81 23 C80.99576806 23.76183059 80.99153612 24.52366117 80.98717594 25.30857754 C80.8840131 43.81862057 80.77539721 62.32862419 80.66066074 80.83859921 C80.60530823 89.78976555 80.55182296 98.74093588 80.50268555 107.69213867 C80.45986849 115.49112891 80.41359686 123.29008956 80.36312145 131.08903414 C80.33650047 135.22110448 80.31164698 139.35316887 80.29092598 143.48527336 C80.27139079 147.37004402 80.24725658 151.25475826 80.21950912 155.13947868 C80.2101221 156.56938659 80.2024528 157.99930689 80.19658089 159.42923355 C80.18834775 161.37321137 80.17348212 163.31715781 80.15821838 165.26109314 C80.15176583 166.35157424 80.14531328 167.44205534 80.1386652 168.56558132 C80 171 80 171 79 172 C71.64847729 172.46116563 64.30511673 171.7912699 57 171 C56.02295903 167.72810023 55.87430444 164.77294549 55.87301636 161.36503601 C55.87019653 160.21691437 55.86737671 159.06879272 55.86447144 157.88587952 C55.86649567 156.63020676 55.8685199 155.374534 55.87060547 154.08081055 C55.86925005 152.74184115 55.86746933 151.40287213 55.86529541 150.06390381 C55.86073646 146.42947976 55.86250468 142.7950841 55.8656745 139.16065955 C55.86820759 135.35359099 55.86585776 131.54652484 55.86428833 127.73945618 C55.86246875 121.34298263 55.86486671 114.94652062 55.86962891 108.55004883 C55.87506414 101.16447512 55.87331339 93.77892905 55.8678025 86.39335603 C55.86325702 80.04671928 55.86262806 73.70009083 55.86524117 67.35345298 C55.86679694 63.56552765 55.86701704 59.77761527 55.86370468 55.98969078 C55.86080537 52.42497345 55.8628394 48.86029153 55.86859894 45.295578 C55.87054164 43.37062122 55.86758968 41.44566142 55.86447144 39.52070618 C55.8781518 33.90955982 55.98157918 28.52423321 57 23 C56.30064835 23.00222061 55.60129669 23.00444122 54.88075256 23.00672913 C48.30295079 23.0267328 41.72515746 23.04197452 35.14733219 23.05181217 C31.76528187 23.05703975 28.3832566 23.06413511 25.0012207 23.07543945 C21.11670223 23.08834267 17.23219403 23.09322924 13.34765625 23.09765625 C12.12788589 23.10281754 10.90811554 23.10797882 9.65138245 23.11329651 C7.96975258 23.11340981 7.96975258 23.11340981 6.25415039 23.11352539 C5.26153702 23.115746 4.26892365 23.11796661 3.24623108 23.12025452 C1 23 1 23 0 22 C0 14.74 0 7.48 0 0 Z " fill="#FC6908" transform="translate(193,281)"/>
<path d="M0 0 C0.72960937 -0.01611328 1.45921875 -0.03222656 2.2109375 -0.04882812 C12.13618279 -0.05768995 20.49740014 5.27662458 27.4375 12.0625 C34.71015753 22.86759119 35.85646249 34.71940718 34.234375 47.35546875 C32.45295242 55.08638598 28.35244664 61.99920077 23.625 68.3125 C22.965 68.3125 22.305 68.3125 21.625 68.3125 C21.625 68.9725 21.625 69.6325 21.625 70.3125 C20.965 70.3125 20.305 70.3125 19.625 70.3125 C19.29822266 71.20195312 19.29822266 71.20195312 18.96484375 72.109375 C16.1571889 76.72604362 10.52030241 78.51659024 5.625 80.3125 C-1.68103986 81.60577522 -7.20218241 80.24800816 -13.375 76.3125 C-15.0765625 75.3225 -15.0765625 75.3225 -16.8125 74.3125 C-19.6052794 72.13276974 -19.72180328 71.5784836 -20.375 68.3125 C-20.99246094 68.01214844 -21.60992187 67.71179688 -22.24609375 67.40234375 C-28.28219543 64.3123027 -31.23385674 55.06687422 -33.41015625 49.06640625 C-36.40359763 37.419859 -35.47788056 26.76021486 -29.51171875 16.31640625 C-22.25296727 6.11168982 -12.56976169 -0.05493777 0 0 Z " fill="#FD6703" transform="translate(81.375,132.6875)"/>
<path d="M0 0 C0 0.66 0 1.32 0 2 C0.59683594 2.26167969 1.19367188 2.52335938 1.80859375 2.79296875 C7.70962907 6.04327162 11.97750922 12.94007371 14.05859375 19.16796875 C17.21677601 32.02347413 15.0006832 43.91545209 8.625 55.25 C6.03791433 59.49435196 3.46813702 63.43277335 0 67 C-0.66 67 -1.32 67 -2 67 C-2 67.66 -2 68.32 -2 69 C-9.43941033 73.28953234 -16.29594402 76.50386562 -24.93359375 74.2265625 C-29.10352463 72.75351919 -33.0680223 71.02085366 -37 69 C-37 68.34 -37 67.68 -37 67 C-37.59296875 66.7628125 -38.1859375 66.525625 -38.796875 66.28125 C-41.48100509 64.72026654 -42.57842113 63.10023379 -44.25 60.5 C-44.77078125 59.7059375 -45.2915625 58.911875 -45.828125 58.09375 C-47 56 -47 56 -47 54 C-47.66 54 -48.32 54 -49 54 C-53.3649176 44.46093851 -56.51832556 33.43855555 -54 23 C-53.80019531 22.14535156 -53.60039062 21.29070312 -53.39453125 20.41015625 C-52.08930649 15.49933823 -50.74551513 11.62469206 -47 8 C-46.34 8 -45.68 8 -45 8 C-44.79375 7.2575 -44.5875 6.515 -44.375 5.75 C-41.56279631 0.12559262 -35.57939076 -1.7682437 -30 -4 C-29.175 -4.391875 -28.35 -4.78375 -27.5 -5.1875 C-18.41423444 -8.14037381 -8.26349851 -3.8562993 0 0 Z " fill="#FD6703" transform="translate(461,138)"/>
<path d="M0 0 C44.88 0 89.76 0 136 0 C136.97369271 3.89477082 137.13346407 7.00495813 137.125 11 C137.12757813 12.216875 137.13015625 13.43375 137.1328125 14.6875 C137.02616155 17.34750011 136.79307874 19.48228971 136 22 C131.37817094 23.17064733 126.9306328 23.12797691 122.19921875 23.09765625 C121.36284378 23.0962413 120.52646881 23.09482635 119.66474915 23.09336853 C117.005629 23.08779184 114.3465945 23.07524365 111.6875 23.0625 C109.87955851 23.05748199 108.0716157 23.05291961 106.26367188 23.04882812 C101.84241516 23.03783004 97.42122207 23.0205815 93 23 C93 22.34 93 21.68 93 21 C106.86 21 120.72 21 135 21 C134.67 14.73 134.34 8.46 134 2 C90.44 2 46.88 2 2 2 C2 8.27 2 14.54 2 21 C20.15 21 38.3 21 57 21 C57 21.66 57 22.32 57 23 C49.71578452 23.02312916 42.4315769 23.04091801 35.14733219 23.05181217 C31.76528187 23.05703975 28.3832566 23.06413511 25.0012207 23.07543945 C21.11670223 23.08834267 17.23219403 23.09322924 13.34765625 23.09765625 C12.12788589 23.10281754 10.90811554 23.10797882 9.65138245 23.11329651 C7.96975258 23.11340981 7.96975258 23.11340981 6.25415039 23.11352539 C5.26153702 23.115746 4.26892365 23.11796661 3.24623108 23.12025452 C1 23 1 23 0 22 C0 14.74 0 7.48 0 0 Z " fill="#E07127" transform="translate(193,281)"/>
<path d="M0 0 C5.64088006 5.64088006 4.23780678 19.07608444 4.27789307 26.65428162 C4.2738446 27.89114212 4.26979614 29.12800262 4.265625 30.40234375 C4.26697894 31.73645599 4.26892545 33.07056775 4.27142334 34.40467834 C4.27434147 37.17697936 4.2701862 39.94914993 4.26074219 42.72143555 C4.24936089 46.22840006 4.25592001 49.73505779 4.26788712 53.24201107 C4.27520606 55.99026184 4.27277233 58.73844307 4.26763153 61.48669624 C4.26569748 63.3933902 4.27164192 65.30008716 4.27789307 67.20677185 C4.24435483 73.56384789 3.95169722 79.84429912 3.23339844 86.15844727 C3.09657654 87.37307144 2.95975464 88.58769562 2.81878662 89.83912659 C1.90515483 93.3661437 0.78432068 94.72320693 -2 97 C-1.125 90.125 -1.125 90.125 0 89 C0.09517803 86.23061034 0.12554265 83.48622841 0.11352539 80.71655273 C0.11374443 79.41423203 0.11374443 79.41423203 0.1139679 78.08560181 C0.11326846 75.20157414 0.10547463 72.3176102 0.09765625 69.43359375 C0.09579218 67.43962133 0.09436823 65.44564845 0.09336853 63.45167542 C0.08954248 58.19254298 0.07971145 52.93343797 0.06866455 47.67431641 C0.0584523 42.31217825 0.05387131 36.95003569 0.04882812 31.58789062 C0.03808926 21.05858167 0.0210118 10.52929311 0 0 Z " fill="#E47F3E" transform="translate(366,34)"/>
<path d="M0 0 C-5.75398379 3.8359892 -13.25396052 3.14400598 -19.98632812 3.11352539 C-20.84581055 3.11367142 -21.70529297 3.11381744 -22.59082031 3.1139679 C-25.40432342 3.11327662 -28.21775859 3.1055213 -31.03125 3.09765625 C-32.99279748 3.09578928 -34.95434544 3.09436669 -36.91589355 3.09336853 C-42.05820013 3.08956534 -47.2004781 3.07975397 -52.34277344 3.06866455 C-57.59830336 3.05840302 -62.85383793 3.05386078 -68.109375 3.04882812 C-78.40626251 3.0381296 -88.70312887 3.02107977 -99 3 C-99.33 2.34 -99.66 1.68 -100 1 C-87.40471562 0.71572933 -74.80931961 0.43714819 -62.21374798 0.16588497 C-56.36549519 0.03975465 -50.51729959 -0.08835532 -44.66918945 -0.22094727 C-39.02831564 -0.34876847 -33.38735151 -0.47144473 -27.74628639 -0.59051323 C-25.59121465 -0.63691378 -23.4361824 -0.68518653 -21.28119469 -0.73533821 C-18.26916969 -0.80511921 -15.2570746 -0.86831784 -12.24487305 -0.92993164 C-11.34863724 -0.95222839 -10.45240143 -0.97452515 -9.52900696 -0.99749756 C-8.70871002 -1.0129512 -7.88841309 -1.02840485 -7.04325867 -1.04432678 C-6.33071269 -1.05999726 -5.61816671 -1.07566774 -4.88402843 -1.09181309 C-3 -1 -3 -1 0 0 Z " fill="#ED7F3B" transform="translate(447,363)"/>
<path d="M0 0 C-0.33 0.99 -0.66 1.98 -1 3 C-13.33463355 3.04628695 -25.66924654 3.08185067 -38.00394917 3.10362434 C-43.73109817 3.11407322 -49.45818787 3.12825256 -55.18530273 3.15087891 C-60.70956698 3.17256791 -66.23377409 3.18456031 -71.75807762 3.18975449 C-73.86845995 3.19345734 -75.97883907 3.20068782 -78.08919716 3.21146011 C-81.03910775 3.22592258 -83.98878052 3.22798014 -86.9387207 3.22705078 C-88.2550222 3.23783661 -88.2550222 3.23783661 -89.59791565 3.24884033 C-95.65784352 3.22810432 -95.65784352 3.22810432 -99 1 C-65.99443167 0.18214751 -33.01534118 -0.13743178 0 0 Z " fill="#ED7C35" transform="translate(178,363)"/>
<path d="M0 0 C0.33 0 0.66 0 1 0 C1.13066423 10.88315375 1.26107198 21.76631053 1.39115143 32.64947128 C1.45155918 37.70283915 1.51205559 42.75620593 1.57275391 47.80957031 C1.63131706 52.68544522 1.68964827 57.56132284 1.74781799 62.43720245 C1.77006248 64.2983434 1.79239085 66.15948334 1.81480408 68.02062225 C1.84615849 70.62539922 1.87721591 73.23017958 1.90820312 75.83496094 C1.91755386 76.60604187 1.9269046 77.3771228 1.9365387 78.17156982 C1.97524403 81.44811192 2 84.72315886 2 88 C0 87 0 87 -0.61691284 85.43534851 C-1.16196783 81.97034368 -1.13882497 78.53227256 -1.12939453 75.03442383 C-1.13114685 74.23565323 -1.13289917 73.43688263 -1.13470459 72.61390686 C-1.13909997 69.97825945 -1.13619409 67.34267932 -1.1328125 64.70703125 C-1.133486 62.87668342 -1.13445642 61.04633568 -1.13571167 59.21598816 C-1.13718534 55.38364814 -1.13504395 51.55133145 -1.13037109 47.71899414 C-1.12466191 42.79574392 -1.12796241 37.87254806 -1.13394356 32.94929981 C-1.13754779 29.17221157 -1.13641143 25.39513634 -1.13381577 21.61804771 C-1.13314674 19.80187664 -1.13397407 17.9857044 -1.13629532 16.16953468 C-1.1388209 13.63878852 -1.13498317 11.10813202 -1.12939453 8.57739258 C-1.13141876 7.82051147 -1.13344299 7.06363037 -1.13552856 6.28381348 C-1.11426517 1.11426517 -1.11426517 1.11426517 0 0 Z " fill="#E6793A" transform="translate(216,39)"/>
<path d="M0 0 C15.89897374 -0.1169573 31.79783078 -0.20504856 47.6971283 -0.25906086 C55.07997037 -0.28480973 62.46254467 -0.3198961 69.84521484 -0.37719727 C76.28222463 -0.42713467 82.71904044 -0.45931514 89.15623856 -0.47044247 C92.5627571 -0.47694398 95.96872084 -0.49215322 99.37506104 -0.52865028 C103.18396792 -0.56499069 106.99172866 -0.56994289 110.80078125 -0.56762695 C111.92215988 -0.58560333 113.04353851 -0.60357971 114.19889832 -0.62210083 C121.21870545 -0.57597058 125.48861666 0.63885084 131 5 C131.825 5.556875 132.65 6.11375 133.5 6.6875 C134.2425 7.3371875 134.2425 7.3371875 135 8 C135 8.66 135 9.32 135 10 C132.625 9.75 132.625 9.75 130 9 C129.690625 8.360625 129.38125 7.72125 129.0625 7.0625 C128.15244696 4.78502919 128.15244696 4.78502919 125.67611694 3.89102173 C120.47513352 2.630401 115.45381195 2.69144777 110.11962891 2.68115234 C108.92881714 2.67110672 107.73800537 2.6610611 106.5111084 2.65071106 C103.259493 2.62518166 100.0079723 2.6082885 96.7562871 2.59528303 C93.35296742 2.57961301 89.94973526 2.55283521 86.54647827 2.5272522 C80.10808826 2.48053275 73.66968165 2.44375568 67.23120916 2.41057932 C59.89862815 2.37230952 52.5661352 2.32291215 45.23362851 2.27259517 C30.15581748 2.16937703 15.07795299 2.08008386 0 2 C0 1.34 0 0.68 0 0 Z " fill="#E6965A" transform="translate(231,24)"/>
<path d="M0 0 C0.33 1.32 0.66 2.64 1 4 C0.34 4 -0.32 4 -1 4 C-0.85815167 7.02106753 -0.71164333 10.04179097 -0.5625 13.0625 C-0.52318359 13.91005859 -0.48386719 14.75761719 -0.44335938 15.63085938 C-0.40146484 16.46552734 -0.35957031 17.30019531 -0.31640625 18.16015625 C-0.27974854 18.91949463 -0.24309082 19.67883301 -0.20532227 20.46118164 C-0.046334 22.42707811 0.20764928 24.38541007 0.5 26.3359375 C1.00942334 30.0690554 1.20704446 33.6996736 1.31640625 37.46484375 C1.33718735 38.14301651 1.35796844 38.82118927 1.37937927 39.51991272 C1.44409309 41.65901831 1.5033909 43.79823296 1.5625 45.9375 C1.60575984 47.39909924 1.64937634 48.86068797 1.69335938 50.32226562 C1.79969251 53.8813984 1.9011733 57.44064997 2 61 C2.66 61.33 3.32 61.66 4 62 C4 71.24 4 80.48 4 90 C3.67 90 3.34 90 3 90 C2.65987063 87.35488678 2.32778576 84.70914853 2 82.0625 C1.90460938 81.32708984 1.80921875 80.59167969 1.7109375 79.83398438 C1.15365374 75.27619936 0.96492829 70.85977331 1.01855469 66.27124023 C0.9863051 62.32363626 0.53917054 58.42279756 0.125 54.5 C-0.69396852 46.29693783 -1.44770571 38.09103453 -2.125 29.875 C-2.21249512 28.85728516 -2.29999023 27.83957031 -2.39013672 26.79101562 C-3.96335221 7.43128539 -3.96335221 7.43128539 0 0 Z " fill="#E89154" transform="translate(63,230)"/>
<path d="M0 0 C0.33 0 0.66 0 1 0 C1.5850749 11.92902718 -0.007054 22.4557797 -3 34 C-2.34 34 -1.68 34 -1 34 C-0.773125 34.721875 -0.54625 35.44375 -0.3125 36.1875 C1.25269608 39.54149161 3.29692716 41.50485584 6 44 C6.33 44.33 6.66 44.66 7 45 C9.01594582 45.23427778 11.038474 45.41336124 13.0625 45.5625 C14.16722656 45.64628906 15.27195312 45.73007812 16.41015625 45.81640625 C17.26480469 45.87699219 18.11945313 45.93757813 19 46 C18.505 43.525 18.505 43.525 18 41 C18.66 41 19.32 41 20 41 C20 41.66 20 42.32 20 43 C20.99 43 21.98 43 23 43 C23.66 41.35 24.32 39.7 25 38 C25.66 38 26.32 38 27 38 C25.44172665 41.50611504 23.74768977 44.30059231 21 47 C17.96307837 47.57208544 15.65279383 47.81091228 12.625 47.75 C11.85857178 47.74258789 11.09214355 47.73517578 10.30249023 47.72753906 C6.87598903 47.57257723 4.58842724 47.35556851 1.62109375 45.5625 C0.07080401 43.75965679 -0.98425263 42.14483994 -2 40 C-2.54914063 39.04480469 -2.54914063 39.04480469 -3.109375 38.0703125 C-6.24235087 30.78751772 -3.44783875 21.78357033 -1.734375 14.4609375 C-0.71678031 9.66525188 -0.28924858 4.88730364 0 0 Z " fill="#E97C34" transform="translate(292,405)"/>
<path d="M0 0 C1.32 0 2.64 0 4 0 C5.16152902 3.48458707 5.13270324 6.26690508 5.125 9.9375 C5.12886719 11.77634766 5.12886719 11.77634766 5.1328125 13.65234375 C5.02667535 16.32762431 4.79917654 18.46927428 4 21 C-0.62182906 22.17064733 -5.0693672 22.12797691 -9.80078125 22.09765625 C-10.63715622 22.0962413 -11.47353119 22.09482635 -12.33525085 22.09336853 C-14.994371 22.08779184 -17.6534055 22.07524365 -20.3125 22.0625 C-22.12044149 22.05748199 -23.9283843 22.05291961 -25.73632812 22.04882812 C-30.15758484 22.03783004 -34.57877793 22.0205815 -39 22 C-39 21.34 -39 20.68 -39 20 C-25.14 20 -11.28 20 3 20 C2.67 13.73 2.34 7.46 2 1 C1.34 0.67 0.68 0.34 0 0 Z " fill="#EF823F" transform="translate(325,282)"/>
<path d="M0 0 C3 2 3 2 3.67480469 3.88208008 C5.60662712 16.46358126 3.79885204 29.75816576 2.06738281 42.24487305 C1.30419461 47.83780989 0.88376836 53.2203647 0.97851562 58.86572266 C1.01641529 62.63071 0.48103863 66.27195059 0 70 C-0.33 70 -0.66 70 -1 70 C-1.3256513 35.65130261 -1.3256513 35.65130261 1 31 C1.15411106 28.9692523 1.24982453 26.93393579 1.31640625 24.8984375 C1.35830078 23.68671875 1.40019531 22.475 1.44335938 21.2265625 C1.48267578 19.95554688 1.52199219 18.68453125 1.5625 17.375 C1.60568359 16.09625 1.64886719 14.8175 1.69335938 13.5 C1.79969886 10.33344652 1.90172833 7.16681247 2 4 C1.01 4.33 0.02 4.66 -1 5 C-0.67 3.35 -0.34 1.7 0 0 Z " fill="#E5752B" transform="translate(459,230)"/>
<path d="M0 0 C0.66 0 1.32 0 2 0 C2 1.32 2 2.64 2 4 C20.15 4 38.3 4 57 4 C57 4.66 57 5.32 57 6 C49.71578452 6.02312916 42.4315769 6.04091801 35.14733219 6.05181217 C31.76528187 6.05703975 28.3832566 6.06413511 25.0012207 6.07543945 C21.11670223 6.08834267 17.23219403 6.09322924 13.34765625 6.09765625 C12.12788589 6.10281754 10.90811554 6.10797882 9.65138245 6.11329651 C7.96975258 6.11340981 7.96975258 6.11340981 6.25415039 6.11352539 C5.26153702 6.115746 4.26892365 6.11796661 3.24623108 6.12025452 C1 6 1 6 0 5 C-0.04063832 3.33382885 -0.042721 1.66611905 0 0 Z " fill="#EE8039" transform="translate(193,298)"/>
<path d="M0 0 C0.66 0.33 1.32 0.66 2 1 C1.85691406 1.87011719 1.85691406 1.87011719 1.7109375 2.7578125 C1.00093063 7.76088419 0.92522829 11.24022962 3 16 C2.34 16.33 1.68 16.66 1 17 C0.938125 16.071875 0.938125 16.071875 0.875 15.125 C0.58625 14.42375 0.2975 13.7225 0 13 C-2.99615946 11.6954344 -2.99615946 11.6954344 -6 11 C-7.89087137 14.27751038 -8.76340641 17.2145025 -9 21 C-7.62831762 23.19038423 -7.62831762 23.19038423 -6 25 C-6 25.99 -6 26.98 -6 28 C-6.66 28 -7.32 28 -8 28 C-8 27.34 -8 26.68 -8 26 C-9.32 25.67 -10.64 25.34 -12 25 C-12.48667297 18.99769998 -10.69882978 13.68299011 -9 8 C-6.03 8.495 -6.03 8.495 -3 9 C-2.86722656 8.43410156 -2.73445313 7.86820313 -2.59765625 7.28515625 C-2.42105469 6.55167969 -2.24445313 5.81820312 -2.0625 5.0625 C-1.88847656 4.33160156 -1.71445312 3.60070312 -1.53515625 2.84765625 C-1 1 -1 1 0 0 Z " fill="#E9863B" transform="translate(317,124)"/>
<path d="M0 0 C0.99 0.495 0.99 0.495 2 1 C1.95359375 2.14855469 1.9071875 3.29710938 1.859375 4.48046875 C1.52140182 16.51751352 2.11192823 28.2079109 10 38 C10.33 38.33 10.66 38.66 11 39 C11.04063832 40.66617115 11.042721 42.33388095 11 44 C11.66 44 12.32 44 13 44 C13 44.99 13 45.98 13 47 C12.34 47 11.68 47 11 47 C10.505 49.475 10.505 49.475 10 52 C8.62567543 48.18243176 9.32024961 44.92744671 10 41 C9.38382813 40.7421875 8.76765625 40.484375 8.1328125 40.21875 C4.00555592 37.86031767 2.60356195 33.18994466 1.38378906 28.76416016 C0.04876515 22.40230856 -0.24344446 16.36211174 -0.125 9.875 C-0.11597656 8.91851562 -0.10695312 7.96203125 -0.09765625 6.9765625 C-0.07439827 4.65076475 -0.04172213 2.32552706 0 0 Z " fill="#EA8542" transform="translate(175,109)"/>
<path d="M0 0 C1.09441406 -0.02416992 1.09441406 -0.02416992 2.2109375 -0.04882812 C9.9659863 -0.05575228 15.38493079 2.89879251 21.625 7.3125 C19.4864515 9.4510485 18.49224686 9.73905063 15.625 10.3125 C14.965 8.3325 14.305 6.3525 13.625 4.3125 C8.91702195 3.12121001 4.3228463 3.12887066 -0.5 3.125 C-1.31082031 3.11275391 -2.12164062 3.10050781 -2.95703125 3.08789062 C-3.73691406 3.08595703 -4.51679687 3.08402344 -5.3203125 3.08203125 C-6.02687988 3.07792236 -6.73344727 3.07381348 -7.46142578 3.06958008 C-9.70364629 3.20984773 -9.70364629 3.20984773 -12.375 5.3125 C-12.375 5.6425 -12.375 5.9725 -12.375 6.3125 C-14.685 6.6425 -16.995 6.9725 -19.375 7.3125 C-17.71356086 3.98962172 -14.45807795 2.85403898 -11.2265625 1.23828125 C-7.47600542 0.02063464 -3.90029167 -0.01704673 0 0 Z " fill="#EA813B" transform="translate(81.375,132.6875)"/>
<path d="M0 0 C0.763125 0.33 1.52625 0.66 2.3125 1 C2.3125 1.66 2.3125 2.32 2.3125 3 C3.6325 3.33 4.9525 3.66 6.3125 4 C6.3125 4.66 6.3125 5.32 6.3125 6 C5.6525 6 4.9925 6 4.3125 6 C4.3125 5.34 4.3125 4.68 4.3125 4 C2.3325 4 0.3525 4 -1.6875 4 C-1.6875 3.01 -1.6875 2.02 -1.6875 1 C-3.72974637 1.11514149 -5.77130159 1.24257326 -7.8125 1.375 C-9.51792969 1.47941406 -9.51792969 1.47941406 -11.2578125 1.5859375 C-14.68841987 2.00011105 -17.52008204 2.61836665 -20.6875 4 C-21.0175 4.99 -21.3475 5.98 -21.6875 7 C-22.3475 7 -23.0075 7 -23.6875 7 C-24.3475 8.98 -25.0075 10.96 -25.6875 13 C-27.0075 12.67 -28.3275 12.34 -29.6875 12 C-29.3575 11.34 -29.0275 10.68 -28.6875 10 C-28.0275 10 -27.3675 10 -26.6875 10 C-26.419375 9.360625 -26.15125 8.72125 -25.875 8.0625 C-24.6875 6 -24.6875 6 -21.6875 5 C-21.6875 4.34 -21.6875 3.68 -21.6875 3 C-14.74885625 -1.93414666 -8.16328358 -2.21377182 0 0 Z " fill="#E88E4D" transform="translate(452.6875,224)"/>
<path d="M0 0 C-1.89192475 0.98669759 -3.78871978 1.9640602 -5.6875 2.9375 C-7.27111328 3.75541016 -7.27111328 3.75541016 -8.88671875 4.58984375 C-15.30608587 7.49748683 -21.99919597 7.34231296 -28.9375 7.625 C-30.00935547 7.6765625 -31.08121094 7.728125 -32.18554688 7.78125 C-37.26581156 7.99515588 -42.0062304 8.16376544 -47 7 C-47 6.67 -47 6.34 -47 6 C-46.2886792 5.97494385 -45.5773584 5.9498877 -44.84448242 5.92407227 C-41.62530483 5.80811561 -38.40642015 5.68538755 -35.1875 5.5625 C-34.06794922 5.52318359 -32.94839844 5.48386719 -31.79492188 5.44335938 C-30.18520508 5.38051758 -30.18520508 5.38051758 -28.54296875 5.31640625 C-27.0583313 5.26141968 -27.0583313 5.26141968 -25.54370117 5.20532227 C-22.8781649 5.09209669 -22.8781649 5.09209669 -20 4 C-18.60560336 3.93334624 -17.20830125 3.91461801 -15.8125 3.9375 C-13.9253125 3.9684375 -13.9253125 3.9684375 -12 4 C-12 3.34 -12 2.68 -12 2 C-10.68 2 -9.36 2 -8 2 C-8 1.34 -8 0.68 -8 0 C-4.71303767 -0.79953138 -3.28976808 -1.09658936 0 0 Z " fill="#EB8546" transform="translate(260,179)"/>
<path d="M0 0 C6.3951602 3.90815346 7.75524652 10.26573956 10 17 C10.12345185 19.55516623 10.1898463 22.06988231 10.1875 24.625 C10.1884668 25.69717773 10.1884668 25.69717773 10.18945312 26.79101562 C10.1364023 32.11056684 9.46674814 36.8663815 8 42 C7.67 42 7.34 42 7 42 C7.01047363 41.34515625 7.02094727 40.6903125 7.03173828 40.015625 C7.07365359 37.01045668 7.09943809 34.00535016 7.125 31 C7.14175781 29.97003906 7.15851563 28.94007813 7.17578125 27.87890625 C7.22681759 19.86620113 6.63783976 13.13001738 2.375 6.125 C0 2.1849711 0 2.1849711 0 0 Z " fill="#EC8645" transform="translate(106,144)"/>
<path d="M0 0 C7.69943385 0.1108972 15.22682048 3.03084956 22.125 6.25 C22.125 6.91 22.125 7.57 22.125 8.25 C23.445 8.91 24.765 9.57 26.125 10.25 C26.125 10.58 26.125 10.91 26.125 11.25 C24.475 11.25 22.825 11.25 21.125 11.25 C20.795 9.93 20.465 8.61 20.125 7.25 C18.805 7.25 17.485 7.25 16.125 7.25 C16.125 6.59 16.125 5.93 16.125 5.25 C14.805 5.25 13.485 5.25 12.125 5.25 C12.125 4.59 12.125 3.93 12.125 3.25 C5.525 3.25 -1.075 3.25 -7.875 3.25 C-6.555 2.59 -5.235 1.93 -3.875 1.25 C-2.875 0.25 -2.875 0.25 0 0 Z " fill="#EB8141" transform="translate(438.875,131.75)"/>
<path d="M0 0 C1.125 3.75 1.125 3.75 0 6 C-7.80621845 9.24762523 -15.67551745 9.35733073 -24 9 C-24 9.66 -24 10.32 -24 11 C-28.95 11 -33.9 11 -39 11 C-39 10.67 -39 10.34 -39 10 C-30.35773901 8.07546289 -22.04569298 6.67683404 -13.1875 6.18359375 C-9.0997898 5.94814966 -5.06403886 5.49048745 -1 5 C-0.67 3.35 -0.34 1.7 0 0 Z " fill="#EA8131" transform="translate(404,280)"/>
<path d="M0 0 C1.24716797 0.00644531 2.49433594 0.01289062 3.77929688 0.01953125 C5.07287109 0.03628906 6.36644531 0.05304687 7.69921875 0.0703125 C9.01212891 0.07933594 10.32503906 0.08835938 11.67773438 0.09765625 C14.91424788 0.12119453 18.15039024 0.1540773 21.38671875 0.1953125 C21.05671875 0.8553125 20.72671875 1.5153125 20.38671875 2.1953125 C19.6503418 2.18483887 18.91396484 2.17436523 18.15527344 2.16357422 C14.81578999 2.12197548 11.4763611 2.09597386 8.13671875 2.0703125 C6.97785156 2.05355469 5.81898438 2.03679688 4.625 2.01953125 C3.50996094 2.01308594 2.39492187 2.00664063 1.24609375 2 C0.21967773 1.98952637 -0.80673828 1.97905273 -1.86425781 1.96826172 C-4.66218354 2.1993515 -6.2932684 2.63689265 -8.61328125 4.1953125 C-9.31263265 6.38072802 -9.31263265 6.38072802 -9.36328125 8.8203125 C-9.42 9.63757812 -9.47671875 10.45484375 -9.53515625 11.296875 C-9.5609375 11.92335938 -9.58671875 12.54984375 -9.61328125 13.1953125 C-10.27328125 13.1953125 -10.93328125 13.1953125 -11.61328125 13.1953125 C-11.61328125 9.5653125 -11.61328125 5.9353125 -11.61328125 2.1953125 C-6.96212934 0.33485174 -4.82182026 -0.04403489 0 0 Z " fill="#E48A4C" transform="translate(240.61328125,38.8046875)"/>
<path d="M0 0 C0.33 0 0.66 0 1 0 C1 1.98 1 3.96 1 6 C1.66 6.33 2.32 6.66 3 7 C3 16.24 3 25.48 3 35 C2.67 35 2.34 35 2 35 C0.33588863 23.26207161 -0.24949584 11.85105258 0 0 Z " fill="#EC7F39" transform="translate(64,285)"/>
<path d="M0 0 C1.32 0.33 2.64 0.66 4 1 C4 1.66 4 2.32 4 3 C-2.44092909 6.7138123 -8.41699194 9.63665435 -16 9 C-19.80660704 7.95523873 -23.39319093 6.59769299 -27 5 C-25.25 4.375 -25.25 4.375 -23 4 C-21.65776538 4.64855875 -20.3255033 5.31789794 -19 6 C-16.9257375 6.28480806 -14.83928561 6.48874224 -12.75 6.625 C-11.67234375 6.69976562 -10.5946875 6.77453125 -9.484375 6.8515625 C-8.66453125 6.90054688 -7.8446875 6.94953125 -7 7 C-7 6.34 -7 5.68 -7 5 C-4 3 -4 3 0 3 C0 2.01 0 1.02 0 0 Z " fill="#E8792D" transform="translate(455,204)"/>
<path d="M0 0 C1.45607397 4.4561727 0.00954181 6.83206143 -2 11 C-2.34546875 11.62003906 -2.6909375 12.24007813 -3.046875 12.87890625 C-4.17967971 15.39986099 -4.53966434 17.70569516 -4.9375 20.4375 C-5.62560992 24.55514976 -6.42695193 27.60825482 -9 31 C-10.01234591 27.87754694 -9.98382635 26.08202133 -8.92578125 22.98828125 C-8.67199707 22.23401855 -8.41821289 21.47975586 -8.15673828 20.70263672 C-7.87813965 19.9138916 -7.59954102 19.12514648 -7.3125 18.3125 C-7.03647949 17.50828613 -6.76045898 16.70407227 -6.47607422 15.87548828 C-4.58559803 10.44600548 -2.49568083 5.18333711 0 0 Z " fill="#EF9557" transform="translate(415,249)"/>
<path d="M0 0 C0.33 0 0.66 0 1 0 C1.63055515 12.54104138 -0.20036819 23.80160427 -3 36 C-3.33 36 -3.66 36 -4 36 C-4.41600784 28.450228 -3.45359921 21.80818814 -1.734375 14.4609375 C-0.71678031 9.66525188 -0.28924858 4.88730364 0 0 Z " fill="#EB853D" transform="translate(292,405)"/>
<path d="M0 0 C0.05379226 2.95857409 0.09357093 5.91617721 0.125 8.875 C0.14175781 9.71675781 0.15851563 10.55851562 0.17578125 11.42578125 C0.18222656 12.23144531 0.18867188 13.03710938 0.1953125 13.8671875 C0.20578613 14.61081543 0.21625977 15.35444336 0.22705078 16.12060547 C0 18 0 18 -2 20 C-2.99 20 -3.98 20 -5 20 C-5 19.34 -5 18.68 -5 18 C-4.01 18 -3.02 18 -2 18 C-2 13.05 -2 8.1 -2 3 C-3.98 3.33 -5.96 3.66 -8 4 C-2.7826087 0 -2.7826087 0 0 0 Z " fill="#E47F3C" transform="translate(201,57)"/>
<path d="M0 0 C0.33 0 0.66 0 1 0 C1.03738281 0.9178125 1.07476562 1.835625 1.11328125 2.78125 C1.48862928 9.78774653 2.05916768 15.60688626 5 22 C6.32 21.67 7.64 21.34 9 21 C9 21.99 9 22.98 9 24 C9.94978897 26.15028304 9.94978897 26.15028304 11 28 C5.97101246 26.56314642 4.04322498 24.05763331 1 20 C-0.1482685 17.703463 -0.11561175 16.41686833 -0.09765625 13.8671875 C-0.09443359 13.06152344 -0.09121094 12.25585938 -0.08789062 11.42578125 C-0.07951172 10.58402344 -0.07113281 9.74226563 -0.0625 8.875 C-0.05798828 8.02550781 -0.05347656 7.17601562 -0.04882812 6.30078125 C-0.03702874 4.20049091 -0.01909306 2.1002367 0 0 Z " fill="#EC8B4A" transform="translate(68,336)"/>
<path d="M0 0 C0.33 0 0.66 0 1 0 C1.06058594 0.85464844 1.12117187 1.70929688 1.18359375 2.58984375 C1.26738281 3.69457031 1.35117188 4.79929687 1.4375 5.9375 C1.51871094 7.03964844 1.59992188 8.14179687 1.68359375 9.27734375 C1.70418084 11.91109903 1.70418084 11.91109903 3 13 C3.40403485 15.41831079 3.75352086 17.81936411 4.0625 20.25 C4.15337891 20.91902344 4.24425781 21.58804688 4.33789062 22.27734375 C4.80791334 25.8749612 5.10546293 29.37207529 5 33 C3.03645581 30.05468371 2.55070294 28.51565155 1.9375 25.125 C1.78152344 24.28195313 1.62554687 23.43890625 1.46484375 22.5703125 C1.23474609 21.29800781 1.23474609 21.29800781 1 20 C0.81695312 19.23042969 0.63390625 18.46085937 0.4453125 17.66796875 C-0.13879002 14.16847731 -0.1064757 10.72246973 -0.0625 7.1875 C-0.05798828 6.49462891 -0.05347656 5.80175781 -0.04882812 5.08789062 C-0.03713156 3.39188932 -0.01919924 1.69593297 0 0 Z " fill="#E6772D" transform="translate(160,111)"/>
<path d="M0 0 C3 2 3 2 3.67919922 3.8425293 C4.01488015 6.10007298 4.12947944 8.23710177 4.1328125 10.51953125 C4.13410156 11.37740234 4.13539063 12.23527344 4.13671875 13.11914062 C4.13285156 14.00794922 4.12898438 14.89675781 4.125 15.8125 C4.12886719 16.68970703 4.13273437 17.56691406 4.13671875 18.47070312 C4.12931333 23.4212291 3.83883185 28.12012902 3 33 C2.67 33 2.34 33 2 33 C2 23.43 2 13.86 2 4 C1.01 4.33 0.02 4.66 -1 5 C-0.67 3.35 -0.34 1.7 0 0 Z " fill="#F29356" transform="translate(459,230)"/>
<path d="M0 0 C2.27389045 2.27389045 2.59948262 3.5664733 3.4375 6.625 C4.37980742 9.95192212 5.40754686 13.16304212 6.6875 16.375 C8 20 8 20 8 24 C7.01 24 6.02 24 5 24 C4.89042969 23.31035156 4.78085938 22.62070312 4.66796875 21.91015625 C3.73541105 16.38304596 2.56737954 11.22053493 0.5859375 5.97265625 C0 4 0 4 0 0 Z " fill="#E9823E" transform="translate(112,261)"/>
<path d="M0 0 C0.33 1.32 0.66 2.64 1 4 C1.66 4 2.32 4 3 4 C3.66 7.3 4.32 10.6 5 14 C5.66 14 6.32 14 7 14 C7.33 15.98 7.66 17.96 8 20 C2.09606703 15.05346157 -0.05242974 8.58056204 -1 1 C-0.67 0.67 -0.34 0.34 0 0 Z " fill="#EF873F" transform="translate(200,429)"/>
<path d="M0 0 C0.33 0 0.66 0 1 0 C1.125 7.75 1.125 7.75 0 10 C-0.22622081 11.70363822 -0.40888473 13.41328701 -0.5625 15.125 C-0.64628906 16.03507812 -0.73007812 16.94515625 -0.81640625 17.8828125 C-0.87699219 18.58148438 -0.93757813 19.28015625 -1 20 C-1.66 20 -2.32 20 -3 20 C-3.3689719 12.68889006 -2.81552726 6.78743178 0 0 Z " fill="#E97B34" transform="translate(304,332)"/>
<path d="M0 0 C0.33 0 0.66 0 1 0 C1.02685412 2.31243792 1.04632841 4.6249627 1.0625 6.9375 C1.07410156 8.22527344 1.08570313 9.51304687 1.09765625 10.83984375 C1 14 1 14 0 15 C-0.23363881 16.84891946 -0.41303635 18.70488031 -0.5625 20.5625 C-0.64628906 21.57441406 -0.73007812 22.58632813 -0.81640625 23.62890625 C-0.87699219 24.41136719 -0.93757813 25.19382812 -1 26 C-1.66 26 -2.32 26 -3 26 C-2.45520982 17.24034738 -1.45892001 8.65437017 0 0 Z " fill="#EA853F" transform="translate(296,378)"/>
<path d="M0 0 C0.99 0.495 0.99 0.495 2 1 C2 2.65 2 4.3 2 6 C2.66 6 3.32 6 4 6 C4 7.32 4 8.64 4 10 C4.66 10 5.32 10 6 10 C6.144375 11.134375 6.28875 12.26875 6.4375 13.4375 C6.61171478 16.80777201 6.61171478 16.80777201 8 18 C8.04063832 19.66617115 8.042721 21.33388095 8 23 C4.55181128 19.22341235 3.47770527 14.77348612 2 10 C1.608125 8.906875 1.21625 7.81375 0.8125 6.6875 C0 4 0 4 0 0 Z " fill="#E98749" transform="translate(183,383)"/>
<path d="M0 0 C0.66 0 1.32 0 2 0 C1.49487476 6.22987798 -1.32604123 11.45474233 -4 17 C-5.88345031 13.80448318 -6.03685648 13.19768473 -5.3125 9.3125 C-4.879375 8.219375 -4.44625 7.12625 -4 6 C-3.01 5.67 -2.02 5.34 -1 5 C-0.67 3.35 -0.34 1.7 0 0 Z " fill="#EF7E2D" transform="translate(336,391)"/>
<path d="M0 0 C1.32 0 2.64 0 4 0 C5.16348868 3.49046605 5.16834776 6.32277017 5.1875 10 C5.20167969 11.2375 5.21585937 12.475 5.23046875 13.75 C5 17 5 17 3 20 C2.67 13.73 2.34 7.46 2 1 C1.34 0.67 0.68 0.34 0 0 Z " fill="#EE762E" transform="translate(325,282)"/>
<path d="M0 0 C0.33 0 0.66 0 1 0 C1 6.6 1 13.2 1 20 C-2.27787821 16.72212179 -1.96738103 12.48837026 -2 8 C-1.55524137 5.19667285 -0.85588996 2.71870928 0 0 Z " fill="#E8823E" transform="translate(408,159)"/>
<path d="M0 0 C0.763125 0.309375 1.52625 0.61875 2.3125 0.9375 C6.56985686 2.79837891 6.56985686 2.79837891 11 2 C11.12375 3.423125 11.12375 3.423125 11.25 4.875 C11.65074923 8.10461791 11.65074923 8.10461791 14.0625 9.375 C14.701875 9.58125 15.34125 9.7875 16 10 C16 10.66 16 11.32 16 12 C11.53204949 10.59578698 9.23064288 8.3156598 6 5 C5.01 4.67 4.02 4.34 3 4 C3 3.34 3 2.68 3 2 C2.01 1.67 1.02 1.34 0 1 C0 0.67 0 0.34 0 0 Z " fill="#EE954A" transform="translate(320,160)"/>
<path d="M0 0 C2.20340764 2.20340764 3.03865268 4.33573106 4.203125 7.1875 C5.05023465 9.21745792 5.05023465 9.21745792 6.6875 11.8125 C8 14 8 14 8 16 C7.34 16 6.68 16 6 16 C5.67 15.01 5.34 14.02 5 13 C3.35 13 1.7 13 0 13 C0 12.01 0 11.02 0 10 C0.66 10 1.32 10 2 10 C1.505 8.63875 1.505 8.63875 1 7.25 C0 4 0 4 0 0 Z " fill="#F27D30" transform="translate(336,138)"/>
<path d="M0 0 C-0.33 0.99 -0.66 1.98 -1 3 C-3.97923003 3.02727678 -6.95820379 3.04697128 -9.9375 3.0625 C-11.18370117 3.07506836 -11.18370117 3.07506836 -12.45507812 3.08789062 C-18.05226441 3.10966956 -23.44733582 2.71159268 -29 2 C-29 1.67 -29 1.34 -29 1 C-28.25314941 1.00523682 -27.50629883 1.01047363 -26.73681641 1.01586914 C-23.36621943 1.03660401 -19.99563586 1.04964899 -16.625 1.0625 C-15.449375 1.07087891 -14.27375 1.07925781 -13.0625 1.08789062 C-11.94101562 1.09111328 -10.81953125 1.09433594 -9.6640625 1.09765625 C-8.62717285 1.10289307 -7.5902832 1.10812988 -6.52197266 1.11352539 C-4.00636611 1.00028657 -2.4619685 0 0 0 Z " fill="#F38A43" transform="translate(352,121)"/>
<path d="M0 0 C0.99 0 1.98 0 3 0 C3 0.66 3 1.32 3 2 C2.34 2 1.68 2 1 2 C1 2.66 1 3.32 1 4 C0.34 4 -0.32 4 -1 4 C-1 4.66 -1 5.32 -1 6 C-3.31 6.33 -5.62 6.66 -8 7 C-8.99 5.68 -9.98 4.36 -11 3 C-9.35 2.67 -7.7 2.34 -6 2 C-6 2.99 -6 3.98 -6 5 C-4.01508358 4.73323796 -4.01508358 4.73323796 -2 4 C-1.67 3.01 -1.34 2.02 -1 1 C-0.67 0.67 -0.34 0.34 0 0 Z " fill="#EE8039" transform="translate(347,169)"/>
<path d="M0 0 C1.2065625 0.0309375 1.2065625 0.0309375 2.4375 0.0625 C0.9525 2.5375 0.9525 2.5375 -0.5625 5.0625 C3.7275 5.0625 8.0175 5.0625 12.4375 5.0625 C8.44969998 7.05640001 6.96602428 7.28936963 2.6875 7.1875 C1.70265625 7.16945312 0.7178125 7.15140625 -0.296875 7.1328125 C-1.41835937 7.09800781 -1.41835937 7.09800781 -2.5625 7.0625 C-2.94383299 5.0710944 -3.27575582 3.06970923 -3.5625 1.0625 C-2.5625 0.0625 -2.5625 0.0625 0 0 Z " fill="#EB8539" transform="translate(181.5625,161.9375)"/>
<path d="M0 0 C0.66 0.33 1.32 0.66 2 1 C1.90460938 1.58007812 1.80921875 2.16015625 1.7109375 2.7578125 C1.00093063 7.76088419 0.92522829 11.24022962 3 16 C2.34 16.33 1.68 16.66 1 17 C0.896875 16.360625 0.79375 15.72125 0.6875 15.0625 C0.460625 14.381875 0.23375 13.70125 0 13 C-0.99 12.67 -1.98 12.34 -3 12 C-2.88541307 10.56163249 -2.75790884 9.12429034 -2.625 7.6875 C-2.55539062 6.88699219 -2.48578125 6.08648437 -2.4140625 5.26171875 C-2 3 -2 3 0 0 Z " fill="#EB8C42" transform="translate(317,124)"/>
<path d="M0 0 C3.80014045 1.90007022 4.62447654 7.16657396 6 11 C6.73646037 13.32394162 7.38437045 15.64008674 8 18 C7.01 18 6.02 18 5 18 C4.67 15.03 4.34 12.06 4 9 C3.01 9 2.02 9 1 9 C0.67 6.03 0.34 3.06 0 0 Z " fill="#EC813F" transform="translate(286,84)"/>
<path d="M0 0 C0.66 0.33 1.32 0.66 2 1 C1.67 1.66 1.34 2.32 1 3 C0.34 3 -0.32 3 -1 3 C-1.33 4.65 -1.66 6.3 -2 8 C-2.99 8.33 -3.98 8.66 -5 9 C-5.33 11.64 -5.66 14.28 -6 17 C-6.33 17 -6.66 17 -7 17 C-7.31563182 11.73946963 -6.66590937 8.55426184 -4 4 C-3.34 4 -2.68 4 -2 4 C-1.34 2.68 -0.68 1.36 0 0 Z " fill="#F09A53" transform="translate(346,294)"/>
<path d="M0 0 C3 1 3 1 4.28125 3.43359375 C4.6834375 4.42488281 5.085625 5.41617188 5.5 6.4375 C7.27662523 10.96224265 7.27662523 10.96224265 11 14 C10.34 14 9.68 14 9 14 C8.67 14.66 8.34 15.32 8 16 C4.52314371 10.83281436 2.00245908 5.90198466 0 0 Z " fill="#EB8547" transform="translate(49,183)"/>
<path d="M0 0 C-0.26088269 3.52191627 -1.24314592 4.21275268 -4 6.625 C-4.99 7.40875 -5.98 8.1925 -7 9 C-7.33 9.66 -7.66 10.32 -8 11 C-8.66 10.67 -9.32 10.34 -10 10 C-4.57142857 0 -4.57142857 0 0 0 Z " fill="#ED8749" transform="translate(62,140)"/>
<path d="M0 0 C1.63572653 2.96904984 2.48650988 5.67579747 3.125 9 C3.29257813 9.845625 3.46015625 10.69125 3.6328125 11.5625 C4 14 4 14 4 18 C3.34 18 2.68 18 2 18 C-0.1583195 11.92972642 -0.20852314 6.40629424 0 0 Z " fill="#EB873D" transform="translate(229,402)"/>
<path d="M0 0 C0.33 0 0.66 0 1 0 C1.37634203 6.80203375 0.77471079 11.75690073 -2 18 C-3.21319104 14.36042687 -2.73983613 12.20652972 -2.125 8.4375 C-1.94195312 7.28121094 -1.75890625 6.12492187 -1.5703125 4.93359375 C-1 2 -1 2 0 0 Z " fill="#EB7630" transform="translate(300,358)"/>
<path d="M0 0 C0.66 0 1.32 0 2 0 C2 0.66 2 1.32 2 2 C1.34 2 0.68 2 0 2 C0.33 3.32 0.66 4.64 1 6 C0.360625 6.226875 -0.27875 6.45375 -0.9375 6.6875 C-3.27193661 7.85250896 -3.27193661 7.85250896 -3.75 10.625 C-3.8325 11.40875 -3.915 12.1925 -4 13 C-4.99 13 -5.98 13 -7 13 C-7 12.34 -7 11.68 -7 11 C-6.34 11 -5.68 11 -5 11 C-4.9175 10.29875 -4.835 9.5975 -4.75 8.875 C-3.81990995 5.3096548 -2.23313631 2.90984428 0 0 Z " fill="#EE7D3D" transform="translate(173,78)"/>
<path d="M0 0 C-0.33 0.66 -0.66 1.32 -1 2 C-4.08298051 3.02766017 -6.33130426 3.16598738 -9.5625 3.1875 C-11.01849609 3.20876953 -11.01849609 3.20876953 -12.50390625 3.23046875 C-15 3 -15 3 -17 1 C-15.10440036 0.83069605 -13.20850769 0.66467136 -11.3125 0.5 C-10.25675781 0.4071875 -9.20101562 0.314375 -8.11328125 0.21875 C-5.39363975 0.0276585 -2.72460144 -0.04043935 0 0 Z " fill="#EE8A55" transform="translate(228,450)"/>
<path d="M0 0 C0.33 0 0.66 0 1 0 C1 1.65 1 3.3 1 5 C0.34 5 -0.32 5 -1 5 C-0.67 7.97 -0.34 10.94 0 14 C-2 13 -2 13 -3 10 C-3.33 10.99 -3.66 11.98 -4 13 C-3.50269348 8.02693484 -2.44697666 4.36200187 0 0 Z " fill="#EF7321" transform="translate(420,240)"/>
<path d="M0 0 C0.66 0.33 1.32 0.66 2 1 C0.71034824 2.37562854 -0.62689293 3.70766393 -2 5 C-2.66 5 -3.32 5 -4 5 C-4 6.32 -4 7.64 -4 9 C-6 10.75 -6 10.75 -8 12 C-7.55396127 6.94489444 -5.35299176 4.59833262 -2 1 C-1.34 0.67 -0.68 0.34 0 0 Z " fill="#EB8546" transform="translate(225,27)"/>
<path d="M0 0 C0.66 0.99 1.32 1.98 2 3 C2.99 3.33 3.98 3.66 5 4 C5.33 4.99 5.66 5.98 6 7 C6.66 7.33 7.32 7.66 8 8 C7.67 8.66 7.34 9.32 7 10 C6.01 9.67 5.02 9.34 4 9 C4 8.34 4 7.68 4 7 C3.38125 6.7525 2.7625 6.505 2.125 6.25 C-0.35068687 4.79371361 -0.95125002 3.62187494 -2 1 C-1.34 0.67 -0.68 0.34 0 0 Z " fill="#ED8746" transform="translate(420,198)"/>
<path d="M0 0 C0.99 0.33 1.98 0.66 3 1 C-2 6 -2 6 -3.6875 7.625 C-5.23918941 9.17108027 -5.23918941 9.17108027 -7 12 C-7 10.35 -7 8.7 -7 7 C-6.34 7 -5.68 7 -5 7 C-5 6.01 -5 5.02 -5 4 C-4.360625 3.896875 -3.72125 3.79375 -3.0625 3.6875 C-2.381875 3.460625 -1.70125 3.23375 -1 3 C-0.67 2.01 -0.34 1.02 0 0 Z " fill="#EB854B" transform="translate(192,78)"/>
<path d="M0 0 C0.33 0 0.66 0 1 0 C1.76681614 10.68430493 1.76681614 10.68430493 -0.11328125 13.91015625 C-1.5 15.25 -1.5 15.25 -4 17 C-4 15.68 -4 14.36 -4 13 C-3.01 13 -2.02 13 -1 13 C-0.67 8.71 -0.34 4.42 0 0 Z " fill="#E3864F" transform="translate(234,431)"/>
<path d="M0 0 C0.66 0 1.32 0 2 0 C1.57476184 1.60746056 1.13429874 3.21089836 0.6875 4.8125 C0.44386719 5.70582031 0.20023437 6.59914062 -0.05078125 7.51953125 C-1.0200819 10.05247738 -1.95009604 11.2716496 -4 13 C-4.25 6.375 -4.25 6.375 -2 3 C-1.34 3 -0.68 3 0 3 C0 2.01 0 1.02 0 0 Z " fill="#EB8238" transform="translate(289,143)"/>
<path d="M0 0 C0 0.66 0 1.32 0 2 C-0.99 2.33 -1.98 2.66 -3 3 C-3.33 3.66 -3.66 4.32 -4 5 C-4.66 5 -5.32 5 -6 5 C-6 5.66 -6 6.32 -6 7 C-7.65 6.67 -9.3 6.34 -11 6 C-7.42339713 2.12534689 -5.31051586 0 0 0 Z " fill="#ED772A" transform="translate(431,135)"/>
<path d="M0 0 C0.66 0 1.32 0 2 0 C2.2396943 5.63281599 1.38529821 10.54538831 0 16 C-0.33 16 -0.66 16 -1 16 C-1.02725341 14.2709226 -1.04650987 12.54171824 -1.0625 10.8125 C-1.07410156 9.84957031 -1.08570313 8.88664062 -1.09765625 7.89453125 C-1.00486622 5.14423487 -0.62111685 2.67520409 0 0 Z " fill="#EA8A48" transform="translate(289,425)"/>
<path d="M0 0 C0.99 0 1.98 0 3 0 C1.31326082 4.49797113 -0.81673892 8.72886302 -3 13 C-4.231394 9.30581799 -3.64432764 6.7943739 -3 3 C-2.01 3 -1.02 3 0 3 C0 2.01 0 1.02 0 0 Z " fill="#EB8643" transform="translate(471,183)"/>
<path d="M0 0 C1 2 1 2 0.1875 4.8125 C-0.83599774 7.55978342 -1.88377654 10.28917159 -3 13 C-3.66 13 -4.32 13 -5 13 C-4.54996653 7.37458159 -3.31558515 4.38512875 0 0 Z " fill="#EE893F" transform="translate(159,168)"/>
<path d="M0 0 C0.66 0 1.32 0 2 0 C2 0.66 2 1.32 2 2 C2.99 2.33 3.98 2.66 5 3 C4.67 4.65 4.34 6.3 4 8 C4.66 8.33 5.32 8.66 6 9 C5.34 9.66 4.68 10.32 4 11 C3.32591692 9.73308493 2.66099503 8.46129251 2 7.1875 C1.62875 6.47980469 1.2575 5.77210937 0.875 5.04296875 C0 3 0 3 0 0 Z " fill="#EC7C2D" transform="translate(271,88)"/>
<path d="M0 0 C-1.62249941 0.83819158 -3.24808497 1.6704116 -4.875 2.5 C-6.23238281 3.19609375 -6.23238281 3.19609375 -7.6171875 3.90625 C-10 5 -10 5 -12 5 C-12 4.01 -12 3.02 -12 2 C-10.68 2 -9.36 2 -8 2 C-8 1.34 -8 0.68 -8 0 C-4.71303767 -0.79953138 -3.28976808 -1.09658936 0 0 Z " fill="#EA7B32" transform="translate(260,179)"/>
<path d="M0 0 C2.97 0.495 2.97 0.495 6 1 C5.67 1.99 5.34 2.98 5 4 C4.34 3.67 3.68 3.34 3 3 C2.34 4.32 1.68 5.64 1 7 C0.67 7 0.34 7 0 7 C0 4.69 0 2.38 0 0 Z " fill="#ED7825" transform="translate(308,132)"/>
<path d="M0 0 C6.12352138 0.36741128 8.78651436 1.78651436 13 6 C13 6.66 13 7.32 13 8 C10.625 7.75 10.625 7.75 8 7 C7.690625 6.360625 7.38125 5.72125 7.0625 5.0625 C6.10213186 2.64493547 6.10213186 2.64493547 2.875 1.75 C1.92625 1.5025 0.9775 1.255 0 1 C0 0.67 0 0.34 0 0 Z " fill="#E9823F" transform="translate(353,26)"/>
<path d="M0 0 C0.33 0 0.66 0 1 0 C0.52060632 4.71403788 0.03165952 8.66579301 -2 13 C-3.4500578 8.45580479 -2.32826388 5.50133869 -1 1 C-0.67 0.67 -0.34 0.34 0 0 Z " fill="#EA8F50" transform="translate(345,366)"/>
<path d="M0 0 C0.33 0.66 0.66 1.32 1 2 C-0.92333011 6.06036357 -3.40069448 8.37347975 -7 11 C-5.5140084 6.40693504 -3.14985318 3.56430755 0 0 Z " fill="#EC7D37" transform="translate(312,321)"/>
<path d="M0 0 C0 0.99 0 1.98 0 3 C-0.66 3 -1.32 3 -2 3 C-2.66 4.98 -3.32 6.96 -4 9 C-5.32 8.67 -6.64 8.34 -8 8 C-7.67 7.34 -7.34 6.68 -7 6 C-6.34 6 -5.68 6 -5 6 C-4.731875 5.38125 -4.46375 4.7625 -4.1875 4.125 C-3 2 -3 2 0 0 Z " fill="#EA7D3A" transform="translate(431,228)"/>
<path d="M0 0 C1.98 0 3.96 0 6 0 C5.67 0.99 5.34 1.98 5 3 C4.34 3 3.68 3 3 3 C2.67 3.99 2.34 4.98 2 6 C1.34 6 0.68 6 0 6 C0 4.02 0 2.04 0 0 Z " fill="#F0823B" transform="translate(275,161)"/>
<path d="M0 0 C2.64 1.65 5.28 3.3 8 5 C5 6 5 6 2.8125 5.0625 C2.214375 4.711875 1.61625 4.36125 1 4 C0.67 4.66 0.34 5.32 0 6 C-0.66 5.67 -1.32 5.34 -2 5 C-2 4.34 -2 3.68 -2 3 C-1.34 3 -0.68 3 0 3 C0 2.01 0 1.02 0 0 Z " fill="#F1772B" transform="translate(267,64)"/>
<path d="M0 0 C0.99 0 1.98 0 3 0 C2.67 3.63 2.34 7.26 2 11 C1.34 11 0.68 11 0 11 C0 7.37 0 3.74 0 0 Z " fill="#E4732D" transform="translate(229,41)"/>
<path d="M0 0 C3.48331435 3.01887244 4.79157144 5.56909529 6 10 C4 10 4 10 2.4375 8.9375 C0.35943153 6.13662511 0.32189473 3.41208416 0 0 Z " fill="#EA8C4E" transform="translate(100,237)"/>
<path d="M0 0 C3 2 3 2 3.71484375 3.828125 C4.03383632 6.25771222 3.88372535 8.32296403 3.5625 10.75 C3.46066406 11.54921875 3.35882813 12.3484375 3.25390625 13.171875 C3.12822266 14.07679688 3.12822266 14.07679688 3 15 C2.67 15 2.34 15 2 15 C2 11.37 2 7.74 2 4 C1.01 4.33 0.02 4.66 -1 5 C-0.67 3.35 -0.34 1.7 0 0 Z " fill="#EE772F" transform="translate(459,230)"/>
<path d="M0 0 C1.31534494 3.65857532 0.65468309 6.08026481 -0.4375 9.75 C-0.86869141 11.22726563 -0.86869141 11.22726563 -1.30859375 12.734375 C-1.53675781 13.48203125 -1.76492187 14.2296875 -2 15 C-2.33 15 -2.66 15 -3 15 C-3.3152595 9.01006953 -2.68219822 5.36439644 0 0 Z " fill="#E87533" transform="translate(165,92)"/>
<path d="M0 0 C3.375 0.6875 3.375 0.6875 7 2 C8.4375 4.625 8.4375 4.625 9 7 C7.68 6.34 6.36 5.68 5 5 C5 4.34 5 3.68 5 3 C3.35 2.67 1.7 2.34 0 2 C0 1.34 0 0.68 0 0 Z " fill="#EA8A4C" transform="translate(171,292)"/>
<path d="M0 0 C1.32 0.33 2.64 0.66 4 1 C2.87926138 1.83905565 1.75325453 2.67107831 0.625 3.5 C-0.00148438 3.9640625 -0.62796875 4.428125 -1.2734375 4.90625 C-3 6 -3 6 -5 6 C-5 5.01 -5 4.02 -5 3 C-3.68 3 -2.36 3 -1 3 C-0.67 2.01 -0.34 1.02 0 0 Z " fill="#EC8C4D" transform="translate(97,204)"/>
<path d="M0 0 C0.33 0 0.66 0 1 0 C1 1.65 1 3.3 1 5 C1.66 5 2.32 5 3 5 C3 5.99 3 6.98 3 8 C2.34 8 1.68 8 1 8 C0.67 9.65 0.34 11.3 0 13 C-0.96661363 9.87819599 -0.98988909 7.47916205 -0.5625 4.25 C-0.46066406 3.45078125 -0.35882813 2.6515625 -0.25390625 1.828125 C-0.17011719 1.22484375 -0.08632812 0.6215625 0 0 Z " fill="#EE965E" transform="translate(185,148)"/>
<path d="M0 0 C5.28 0.33 10.56 0.66 16 1 C16 1.33 16 1.66 16 2 C11.38 2.33 6.76 2.66 2 3 C1.34 2.01 0.68 1.02 0 0 Z " fill="#EC6B20" transform="translate(232,122)"/>
<path d="M0 0 C0.66 0 1.32 0 2 0 C1.38461538 5.53846154 1.38461538 5.53846154 -0.5625 7.875 C-1.036875 8.24625 -1.51125 8.6175 -2 9 C-2 7.02 -2 5.04 -2 3 C-1.34 3 -0.68 3 0 3 C0 2.01 0 1.02 0 0 Z " fill="#EE8144" transform="translate(327,416)"/>
<path d="M0 0 C0.66 0 1.32 0 2 0 C2.36629408 4.27343092 1.40814077 6.48812804 -1 10 C-2.46726798 6.18510326 -1.43336419 3.70988378 0 0 Z " fill="#EC7E3D" transform="translate(407,270)"/>
<path d="M0 0 C0.33 0 0.66 0 1 0 C1 2.31 1 4.62 1 7 C0.34 7 -0.32 7 -1 7 C-1 7.66 -1 8.32 -1 9 C-1.99 8.67 -2.98 8.34 -4 8 C-2.68 5.36 -1.36 2.72 0 0 Z " fill="#ED8643" transform="translate(274,141)"/>
<path d="M0 0 C2.52259061 1.97420135 2.9929808 2.96745642 3.6875 6.1875 C3.790625 7.115625 3.89375 8.04375 4 9 C1.24338912 6.51015791 -0.60746455 4.79450934 -1 1 C-0.67 0.67 -0.34 0.34 0 0 Z " fill="#EF7123" transform="translate(181,375)"/>
<path d="M0 0 C0.66 0.66 1.32 1.32 2 2 C1.67 2.66 1.34 3.32 1 4 C1.66 4.33 2.32 4.66 3 5 C3 5.66 3 6.32 3 7 C0.5625 6.1875 0.5625 6.1875 -2 5 C-2.33 4.01 -2.66 3.02 -3 2 C-2.01 1.34 -1.02 0.68 0 0 Z " fill="#EF823A" transform="translate(76,357)"/>
<path d="M0 0 C2.1793144 1.75864246 2.93686419 2.69396 3.51171875 5.48046875 C3.56972656 6.37378906 3.62773437 7.26710938 3.6875 8.1875 C3.75324219 9.08855469 3.81898438 9.98960937 3.88671875 10.91796875 C3.92410156 11.60503906 3.96148437 12.29210937 4 13 C3.01 13.495 3.01 13.495 2 14 C1.93941406 13.40832031 1.87882813 12.81664062 1.81640625 12.20703125 C1.37987629 8.09021792 0.91328654 4.04455467 0 0 Z " fill="#E17D33" transform="translate(180,299)"/>
<path d="M0 0 C2 1 2 1 2.8515625 3.06640625 C3.10679688 3.89011719 3.36203125 4.71382812 3.625 5.5625 C3.88539062 6.38878906 4.14578125 7.21507812 4.4140625 8.06640625 C4.60742188 8.70449219 4.80078125 9.34257812 5 10 C2 9 2 9 0.8125 6.6875 C0 4 0 4 0 0 Z " fill="#EA7529" transform="translate(107,251)"/>
<path d="M0 0 C4.75 0.75 4.75 0.75 7 3 C5.02 3.66 3.04 4.32 1 5 C0.67 3.35 0.34 1.7 0 0 Z " fill="#F37621" transform="translate(96,138)"/>
<path d="M0 0 C0.33 0 0.66 0 1 0 C1.16894443 1.74978157 1.33506309 3.49983612 1.5 5.25 C1.5928125 6.22453125 1.685625 7.1990625 1.78125 8.203125 C1.95800168 10.46302153 2 12.73320193 2 15 C1.34 14.67 0.68 14.34 0 14 C0 9.38 0 4.76 0 0 Z " fill="#EF7532" transform="translate(216,112)"/>
<path d="M0 0 C1.32 0.33 2.64 0.66 4 1 C4 1.66 4 2.32 4 3 C4.99 3.33 5.98 3.66 7 4 C6.67 4.66 6.34 5.32 6 6 C4.02 5.34 2.04 4.68 0 4 C0 2.68 0 1.36 0 0 Z " fill="#EA823F" transform="translate(208,320)"/>
<path d="M0 0 C0.99 0 1.98 0 3 0 C2.67 1.32 2.34 2.64 2 4 C0.35 4.33 -1.3 4.66 -3 5 C-2.67 4.01 -2.34 3.02 -2 2 C-1.34 2 -0.68 2 0 2 C0 1.34 0 0.68 0 0 Z " fill="#EE6E15" transform="translate(315,319)"/>
<path d="M0 0 C1.32 0 2.64 0 4 0 C4 0.66 4 1.32 4 2 C5.32 2.33 6.64 2.66 8 3 C8 3.66 8 4.32 8 5 C7.34 5 6.68 5 6 5 C6 4.34 6 3.68 6 3 C4.02 3 2.04 3 0 3 C0 2.01 0 1.02 0 0 Z " fill="#EC8541" transform="translate(451,225)"/>
<path d="M0 0 C0.99 0.33 1.98 0.66 3 1 C3 1.66 3 2.32 3 3 C4.32 3.66 5.64 4.32 7 5 C7 5.33 7 5.66 7 6 C5.35 6 3.7 6 2 6 C1.34 4.02 0.68 2.04 0 0 Z " fill="#EB9154" transform="translate(458,137)"/>
<path d="M0 0 C3.71888239 0.50712033 6.73454239 1.11608215 10 3 C10 3.66 10 4.32 10 5 C9.01 5 8.02 5 7 5 C7 4.34 7 3.68 7 3 C5.68 3 4.36 3 3 3 C3 2.34 3 1.68 3 1 C2.01 0.67 1.02 0.34 0 0 Z " fill="#E87B2A" transform="translate(448,134)"/>
<path d="M0 0 C0.33 0 0.66 0 1 0 C1.25 2.25 1.25 2.25 1 5 C-1 7.3125 -1 7.3125 -3 9 C-2.25 2.25 -2.25 2.25 0 0 Z " fill="#EB8644" transform="translate(367,122)"/>
<path d="M0 0 C0.33 1.32 0.66 2.64 1 4 C1.66 4 2.32 4 3 4 C3 5.65 3 7.3 3 9 C2.01 8.67 1.02 8.34 0 8 C-0.38063221 5.6739143 -0.71269945 3.33944736 -1 1 C-0.67 0.67 -0.34 0.34 0 0 Z " fill="#E87D38" transform="translate(200,429)"/>
<path d="M0 0 C0.66 0 1.32 0 2 0 C2.33 2.31 2.66 4.62 3 7 C2.01 7 1.02 7 0 7 C0 4.69 0 2.38 0 0 Z " fill="#EC7628" transform="translate(117,278)"/>
<path d="M0 0 C0.99 0.33 1.98 0.66 3 1 C1.75 3 1.75 3 0 5 C-1.32 5 -2.64 5 -4 5 C-4 4.34 -4 3.68 -4 3 C-2.1875 1.3125 -2.1875 1.3125 0 0 Z " fill="#F08134" transform="translate(188,63)"/>
<path d="M0 0 C0 1.65 0 3.3 0 5 C-0.33 4.34 -0.66 3.68 -1 3 C-3.31 3.33 -5.62 3.66 -8 4 C-2.7826087 0 -2.7826087 0 0 0 Z " fill="#ECA170" transform="translate(201,57)"/>
<path d="M0 0 C0.66 0 1.32 0 2 0 C2.33 2.97 2.66 5.94 3 9 C0.90250005 6.64031256 0.03094296 5.45383006 -0.1875 2.25 C-0.125625 1.5075 -0.06375 0.765 0 0 Z " fill="#EB884C" transform="translate(177,366)"/>
<path d="M0 0 C2.12508244 3.18762365 2.5020163 5.26512223 3 9 C2.01 9.495 2.01 9.495 1 10 C0.67 6.7 0.34 3.4 0 0 Z " fill="#E86A17" transform="translate(340,305)"/>
<path d="M0 0 C0.66 0 1.32 0 2 0 C2.0825 0.61875 2.165 1.2375 2.25 1.875 C2.81258459 4.18437567 2.81258459 4.18437567 5.0625 5.25 C5.701875 5.4975 6.34125 5.745 7 6 C5.00045254 6.04254356 2.99958364 6.04080783 1 6 C0 5 0 5 -0.0625 2.4375 C-0.041875 1.633125 -0.02125 0.82875 0 0 Z " fill="#F2915A" transform="translate(193,298)"/>
<path d="M0 0 C2.6855594 2.6855594 3.06049974 5.37621328 4 9 C3.34 9.66 2.68 10.32 2 11 C0.80712589 7.12315913 0 4.08378077 0 0 Z " fill="#F19046" transform="translate(336,138)"/>
<path d="M0 0 C0.66 0 1.32 0 2 0 C1.60196439 2.88575819 1.20990931 3.82189513 -1.0625 5.75 C-1.701875 6.1625 -2.34125 6.575 -3 7 C-1.125 1.125 -1.125 1.125 0 0 Z " fill="#F27626" transform="translate(60,140)"/>
</svg>
